M48
;Layer_Color=9474304
;FILE_FORMAT=2:5
INCH,TZ
;TYPE=PLATED
T01F00S00C0.00787
T02F00S00C0.01181
T03F00S00C0.04291
T04F00S00C0.04331
T05F00S00C0.12598
;TYPE=NON_PLATED
T06F00S00C0.09449
T07F00S00C0.13386
%
T01
X178544Y76379
Y84646
X197048Y85828
X203347
X213583Y87402
X216733
X218308Y96851
X223426Y92127
X237599Y98032
X231694Y113387
X211615Y114961
X206890Y115355
X201772
X257678Y107087
X262009
X230119Y59056
X76378Y59055
X69685Y92126
X64567Y96850
X62992Y87402
X59842
X49606Y85827
X43307
X24803Y84646
Y76378
X48031Y115354
X53150
X57874Y114961
X77953Y113386
X83858Y98032
X103937Y107087
X108268
T02
X209646Y84253
X197048Y111418
X266733Y115749
X259253Y165355
Y170080
X251378Y174016
X248229
X234843Y164174
X217520Y166536
Y169292
Y173623
X210040Y176379
X105512Y170079
Y165354
X97638Y174016
X94488
X81102Y164173
X63779Y166535
Y169291
Y173622
X56299Y176378
X43307Y111417
X55905Y84252
X112992Y115748
T03
X50571Y31811
X61476
X72382
X83287
X88740Y42992
X77835
X66929
X56024
X45118
X198859Y42993
X209764
X220670
X231575
X242481
X237028Y31812
X226123
X215217
X204312
T04
X448248Y88701
Y98701
X458248
Y88701
X468248
Y98701
X478248
Y88701
X438248
X428248
X418248
Y98701
X428248
X438248
T05
X17717Y37402
X116142
X171457Y37402
X269882
T06
X330591Y19252
X362087
X393583
X425079
Y52716
X393583
X362087
X330591
T07
X130315Y194882
M30
