G04*
G04 #@! TF.GenerationSoftware,Altium Limited,Altium Designer,26.7.1 (11)*
G04*
G04 Layer_Physical_Order=3*
G04 Layer_Color=16440176*
G04 Board_Origin=18197186|10375118*
%FSLAX25Y25*%
%MOIN*%
G70*
G04*
G04 #@! TF.SameCoordinates,9A6B45A5-7AEA-4761-84FC-0EBD5BAD159F*
G04*
G04*
G04 #@! TF.FilePolarity,Positive*
G04*
G01*
G75*
%ADD36C,0.06496*%
%ADD41C,0.01772*%
%ADD42C,0.02362*%
G36*
X149879Y196678D02*
X149979Y196644D01*
X150067Y196585D01*
X151495Y195994D01*
X151598Y195973D01*
X151693Y195926D01*
X153186Y195526D01*
X153291Y195519D01*
X153392Y195485D01*
X154923Y195284D01*
X155003Y195289D01*
X155080Y195271D01*
X155853Y195246D01*
X155879Y195250D01*
X155905Y195245D01*
X497047Y195245D01*
X497716D01*
X499042Y195070D01*
X500335Y194724D01*
X501571Y194212D01*
X502729Y193543D01*
X503791Y192729D01*
X504737Y191783D01*
X505551Y190721D01*
X506220Y189563D01*
X506732Y188327D01*
X507078Y187035D01*
X507253Y185708D01*
Y185039D01*
Y11811D01*
X507253Y11142D01*
X507078Y9816D01*
X506732Y8524D01*
X506220Y7288D01*
X505551Y6129D01*
X504737Y5068D01*
X503791Y4122D01*
X502729Y3307D01*
X501571Y2638D01*
X500335Y2126D01*
X499043Y1780D01*
X497716Y1606D01*
X497047D01*
X312614D01*
Y151575D01*
X312553Y151882D01*
X312379Y152143D01*
X312118Y152316D01*
X311811Y152378D01*
X1606D01*
Y185039D01*
Y185708D01*
X1780Y187035D01*
X2127Y188327D01*
X2638Y189563D01*
X3307Y190721D01*
X4122Y191783D01*
X5068Y192729D01*
X6129Y193543D01*
X7288Y194212D01*
X8524Y194724D01*
X9816Y195070D01*
X11142Y195245D01*
X11811Y195245D01*
X104724Y195245D01*
X104751Y195250D01*
X104777Y195246D01*
X105549Y195271D01*
X105627Y195289D01*
X105706Y195284D01*
X107238Y195485D01*
X107339Y195519D01*
X107444Y195526D01*
X108937Y195926D01*
X109031Y195973D01*
X109135Y195994D01*
X110563Y196585D01*
X110651Y196644D01*
X110751Y196678D01*
X111407Y197057D01*
X122727Y197057D01*
X123044Y196671D01*
X122835Y195619D01*
Y194145D01*
X123122Y192700D01*
X123686Y191339D01*
X124505Y190113D01*
X125547Y189072D01*
X126772Y188253D01*
X128133Y187689D01*
X129578Y187402D01*
X131052D01*
X132497Y187689D01*
X133858Y188253D01*
X135083Y189072D01*
X136125Y190113D01*
X136944Y191339D01*
X137508Y192700D01*
X137795Y194145D01*
Y195619D01*
X137586Y196672D01*
X137903Y197059D01*
X149218Y197060D01*
X149879Y196678D01*
D02*
G37*
G36*
X129512Y41187D02*
X129012Y41108D01*
X128547Y42540D01*
X127590Y44417D01*
X126352Y46122D01*
X124862Y47612D01*
X123157Y48850D01*
X121280Y49807D01*
X119276Y50458D01*
X117195Y50787D01*
X115088D01*
X113007Y50458D01*
X111003Y49807D01*
X109126Y48850D01*
X107422Y47612D01*
X105932Y46122D01*
X104693Y44417D01*
X103737Y42540D01*
X103085Y40536D01*
X102756Y38455D01*
Y36348D01*
X103085Y34267D01*
X103737Y32263D01*
X104693Y30386D01*
X105932Y28681D01*
X107422Y27191D01*
X109126Y25953D01*
X111003Y24996D01*
X113007Y24345D01*
X115088Y24016D01*
X117195D01*
X119276Y24345D01*
X121280Y24996D01*
X123157Y25953D01*
X124862Y27191D01*
X126352Y28681D01*
X127590Y30386D01*
X128547Y32263D01*
X129012Y33695D01*
X129512Y33616D01*
Y1606D01*
X11811D01*
X11142Y1606D01*
X9816Y1780D01*
X8523Y2126D01*
X7288Y2638D01*
X6129Y3307D01*
X5068Y4122D01*
X4122Y5068D01*
X3543Y5821D01*
Y123213D01*
X129512D01*
Y41187D01*
D02*
G37*
G36*
X283449Y40510D02*
X282949Y40471D01*
X282939Y40537D01*
X282288Y42541D01*
X281331Y44418D01*
X280093Y46123D01*
X278603Y47613D01*
X276898Y48851D01*
X275021Y49808D01*
X273017Y50459D01*
X270936Y50788D01*
X268829D01*
X266748Y50459D01*
X264744Y49808D01*
X262867Y48851D01*
X261162Y47613D01*
X259672Y46123D01*
X258434Y44418D01*
X257477Y42541D01*
X256826Y40537D01*
X256497Y38456D01*
Y36349D01*
X256826Y34268D01*
X257477Y32264D01*
X258434Y30387D01*
X259672Y28682D01*
X261162Y27192D01*
X262867Y25954D01*
X264744Y24997D01*
X266748Y24346D01*
X268829Y24016D01*
X270936D01*
X273017Y24346D01*
X275021Y24997D01*
X276898Y25954D01*
X278603Y27192D01*
X280093Y28682D01*
X281331Y30387D01*
X282288Y32264D01*
X282939Y34268D01*
X282949Y34334D01*
X283449Y34295D01*
Y1606D01*
X157889Y1606D01*
Y34302D01*
X158389Y34341D01*
X158401Y34268D01*
X159052Y32264D01*
X160009Y30387D01*
X161247Y28682D01*
X162737Y27192D01*
X164442Y25954D01*
X166319Y24997D01*
X168323Y24346D01*
X170404Y24016D01*
X172511D01*
X174592Y24346D01*
X176596Y24997D01*
X178473Y25954D01*
X180177Y27192D01*
X181667Y28682D01*
X182906Y30387D01*
X183862Y32264D01*
X184513Y34268D01*
X184843Y36349D01*
Y38456D01*
X184513Y40537D01*
X183862Y42541D01*
X182906Y44418D01*
X181667Y46123D01*
X180177Y47613D01*
X178473Y48851D01*
X176596Y49808D01*
X174592Y50459D01*
X172511Y50788D01*
X170404D01*
X168323Y50459D01*
X166319Y49808D01*
X164442Y48851D01*
X162737Y47613D01*
X161247Y46123D01*
X160009Y44418D01*
X159052Y42541D01*
X158401Y40537D01*
X158389Y40464D01*
X157889Y40503D01*
Y123213D01*
X283449D01*
Y40510D01*
D02*
G37*
%LPC*%
G36*
X251692Y175591D02*
X251065D01*
X250486Y175352D01*
X250087Y174952D01*
X249804Y174929D01*
X249520Y174952D01*
X249121Y175352D01*
X248542Y175591D01*
X247916D01*
X247337Y175352D01*
X246894Y174909D01*
X246654Y174330D01*
Y173703D01*
X246894Y173125D01*
X247337Y172681D01*
X247916Y172442D01*
X248542D01*
X249121Y172681D01*
X249520Y173081D01*
X249804Y173105D01*
X250087Y173081D01*
X250486Y172681D01*
X251065Y172442D01*
X251692D01*
X252271Y172681D01*
X252714Y173125D01*
X252953Y173703D01*
Y174330D01*
X252714Y174909D01*
X252271Y175352D01*
X251692Y175591D01*
D02*
G37*
G36*
X97951Y175591D02*
X97325D01*
X96746Y175351D01*
X96346Y174951D01*
X96063Y174928D01*
X95780Y174951D01*
X95380Y175351D01*
X94801Y175591D01*
X94175D01*
X93596Y175351D01*
X93153Y174908D01*
X92913Y174329D01*
Y173703D01*
X93153Y173124D01*
X93596Y172681D01*
X94175Y172441D01*
X94801D01*
X95380Y172681D01*
X95780Y173080D01*
X96063Y173104D01*
X96346Y173080D01*
X96746Y172681D01*
X97325Y172441D01*
X97951D01*
X98530Y172681D01*
X98973Y173124D01*
X99213Y173703D01*
Y174329D01*
X98973Y174908D01*
X98530Y175351D01*
X97951Y175591D01*
D02*
G37*
G36*
X210353Y177954D02*
X209727D01*
X209148Y177714D01*
X208705Y177271D01*
X208465Y176692D01*
Y176066D01*
X208705Y175487D01*
X209148Y175044D01*
X209727Y174804D01*
X210353D01*
X210932Y175044D01*
X211375Y175487D01*
X211615Y176066D01*
Y176692D01*
X211375Y177271D01*
X210932Y177714D01*
X210353Y177954D01*
D02*
G37*
G36*
X56612Y177953D02*
X55986D01*
X55407Y177713D01*
X54964Y177270D01*
X54724Y176691D01*
Y176065D01*
X54964Y175486D01*
X55407Y175043D01*
X55986Y174803D01*
X56612D01*
X57191Y175043D01*
X57634Y175486D01*
X57874Y176065D01*
Y176691D01*
X57634Y177270D01*
X57191Y177713D01*
X56612Y177953D01*
D02*
G37*
G36*
X217833Y175198D02*
X217207D01*
X216628Y174958D01*
X216185Y174515D01*
X215946Y173936D01*
Y173310D01*
X216185Y172731D01*
X216628Y172288D01*
X217207Y172048D01*
X217833D01*
X218412Y172288D01*
X218855Y172731D01*
X219095Y173310D01*
Y173936D01*
X218855Y174515D01*
X218412Y174958D01*
X217833Y175198D01*
D02*
G37*
G36*
X64093Y175197D02*
X63466D01*
X62888Y174957D01*
X62445Y174514D01*
X62205Y173935D01*
Y173309D01*
X62445Y172730D01*
X62888Y172287D01*
X63466Y172047D01*
X64093D01*
X64672Y172287D01*
X65115Y172730D01*
X65354Y173309D01*
Y173935D01*
X65115Y174514D01*
X64672Y174957D01*
X64093Y175197D01*
D02*
G37*
G36*
X259566Y171654D02*
X258939D01*
X258361Y171415D01*
X257917Y170972D01*
X257678Y170393D01*
Y169766D01*
X257917Y169187D01*
X258361Y168745D01*
X258939Y168505D01*
X259566D01*
X260145Y168745D01*
X260588Y169187D01*
X260827Y169766D01*
Y170393D01*
X260588Y170972D01*
X260145Y171415D01*
X259566Y171654D01*
D02*
G37*
G36*
X105825Y171654D02*
X105199D01*
X104620Y171414D01*
X104177Y170971D01*
X103937Y170392D01*
Y169765D01*
X104177Y169187D01*
X104620Y168744D01*
X105199Y168504D01*
X105825D01*
X106404Y168744D01*
X106847Y169187D01*
X107087Y169765D01*
Y170392D01*
X106847Y170971D01*
X106404Y171414D01*
X105825Y171654D01*
D02*
G37*
G36*
X259566Y166930D02*
X258939D01*
X258361Y166690D01*
X257917Y166247D01*
X257678Y165668D01*
Y165042D01*
X257917Y164463D01*
X258361Y164020D01*
X258939Y163780D01*
X259566D01*
X260145Y164020D01*
X260588Y164463D01*
X260827Y165042D01*
Y165668D01*
X260588Y166247D01*
X260145Y166690D01*
X259566Y166930D01*
D02*
G37*
G36*
X105825Y166929D02*
X105199D01*
X104620Y166689D01*
X104177Y166246D01*
X103937Y165668D01*
Y165041D01*
X104177Y164462D01*
X104620Y164019D01*
X105199Y163779D01*
X105825D01*
X106404Y164019D01*
X106847Y164462D01*
X107087Y165041D01*
Y165668D01*
X106847Y166246D01*
X106404Y166689D01*
X105825Y166929D01*
D02*
G37*
G36*
X235156Y165749D02*
X234530D01*
X233951Y165509D01*
X233508Y165066D01*
X233268Y164487D01*
Y163861D01*
X233508Y163282D01*
X233951Y162839D01*
X234530Y162599D01*
X235156D01*
X235735Y162839D01*
X236178Y163282D01*
X236418Y163861D01*
Y164487D01*
X236178Y165066D01*
X235735Y165509D01*
X235156Y165749D01*
D02*
G37*
G36*
X81416Y165748D02*
X80789D01*
X80210Y165508D01*
X79767Y165065D01*
X79528Y164487D01*
Y163860D01*
X79767Y163281D01*
X80210Y162838D01*
X80789Y162599D01*
X81416D01*
X81994Y162838D01*
X82437Y163281D01*
X82677Y163860D01*
Y164487D01*
X82437Y165065D01*
X81994Y165508D01*
X81416Y165748D01*
D02*
G37*
G36*
X448807Y102949D02*
X448748D01*
Y99201D01*
X452496D01*
Y99260D01*
X452207Y100340D01*
X451647Y101309D01*
X450856Y102100D01*
X449888Y102659D01*
X448807Y102949D01*
D02*
G37*
G36*
X447748D02*
X447689D01*
X446608Y102659D01*
X445640Y102100D01*
X444849Y101309D01*
X444289Y100340D01*
X444000Y99260D01*
Y99201D01*
X447748D01*
Y102949D01*
D02*
G37*
G36*
X478779Y102736D02*
X477717D01*
X476690Y102461D01*
X475770Y101930D01*
X475019Y101179D01*
X474488Y100258D01*
X474213Y99232D01*
Y98169D01*
X474488Y97143D01*
X475019Y96223D01*
X475770Y95472D01*
X476690Y94940D01*
X477717Y94665D01*
X478779D01*
X479806Y94940D01*
X480726Y95472D01*
X481477Y96223D01*
X482008Y97143D01*
X482283Y98169D01*
Y99232D01*
X482008Y100258D01*
X481477Y101179D01*
X480726Y101930D01*
X479806Y102461D01*
X478779Y102736D01*
D02*
G37*
G36*
X468779D02*
X467717D01*
X466690Y102461D01*
X465770Y101930D01*
X465019Y101179D01*
X464488Y100258D01*
X464213Y99232D01*
Y98169D01*
X464488Y97143D01*
X465019Y96223D01*
X465770Y95472D01*
X466690Y94940D01*
X467717Y94665D01*
X468779D01*
X469806Y94940D01*
X470726Y95472D01*
X471477Y96223D01*
X472008Y97143D01*
X472284Y98169D01*
Y99232D01*
X472008Y100258D01*
X471477Y101179D01*
X470726Y101930D01*
X469806Y102461D01*
X468779Y102736D01*
D02*
G37*
G36*
X458779D02*
X457717D01*
X456690Y102461D01*
X455770Y101930D01*
X455019Y101179D01*
X454488Y100258D01*
X454213Y99232D01*
Y98169D01*
X454488Y97143D01*
X455019Y96223D01*
X455770Y95472D01*
X456690Y94940D01*
X457717Y94665D01*
X458779D01*
X459806Y94940D01*
X460726Y95472D01*
X461477Y96223D01*
X462008Y97143D01*
X462284Y98169D01*
Y99232D01*
X462008Y100258D01*
X461477Y101179D01*
X460726Y101930D01*
X459806Y102461D01*
X458779Y102736D01*
D02*
G37*
G36*
X438779D02*
X437717D01*
X436690Y102461D01*
X435770Y101930D01*
X435019Y101179D01*
X434488Y100258D01*
X434213Y99232D01*
Y98169D01*
X434488Y97143D01*
X435019Y96223D01*
X435770Y95472D01*
X436690Y94940D01*
X437717Y94665D01*
X438779D01*
X439806Y94940D01*
X440726Y95472D01*
X441477Y96223D01*
X442008Y97143D01*
X442283Y98169D01*
Y99232D01*
X442008Y100258D01*
X441477Y101179D01*
X440726Y101930D01*
X439806Y102461D01*
X438779Y102736D01*
D02*
G37*
G36*
X428779D02*
X427717D01*
X426690Y102461D01*
X425770Y101930D01*
X425019Y101179D01*
X424488Y100258D01*
X424213Y99232D01*
Y98169D01*
X424488Y97143D01*
X425019Y96223D01*
X425770Y95472D01*
X426690Y94940D01*
X427717Y94665D01*
X428779D01*
X429806Y94940D01*
X430726Y95472D01*
X431477Y96223D01*
X432008Y97143D01*
X432283Y98169D01*
Y99232D01*
X432008Y100258D01*
X431477Y101179D01*
X430726Y101930D01*
X429806Y102461D01*
X428779Y102736D01*
D02*
G37*
G36*
X422284D02*
X414213D01*
Y94665D01*
X422284D01*
Y102736D01*
D02*
G37*
G36*
X452496Y98201D02*
X448748D01*
Y94453D01*
X448807D01*
X449888Y94742D01*
X450856Y95302D01*
X451647Y96092D01*
X452207Y97061D01*
X452496Y98141D01*
Y98201D01*
D02*
G37*
G36*
X447748D02*
X444000D01*
Y98141D01*
X444289Y97061D01*
X444849Y96092D01*
X445640Y95302D01*
X446608Y94742D01*
X447689Y94453D01*
X447748D01*
Y98201D01*
D02*
G37*
G36*
X478779Y92736D02*
X477717D01*
X476690Y92461D01*
X475770Y91930D01*
X475019Y91179D01*
X474488Y90258D01*
X474213Y89232D01*
Y88169D01*
X474488Y87143D01*
X475019Y86223D01*
X475770Y85472D01*
X476690Y84940D01*
X477717Y84665D01*
X478779D01*
X479806Y84940D01*
X480726Y85472D01*
X481477Y86223D01*
X482008Y87143D01*
X482283Y88169D01*
Y89232D01*
X482008Y90258D01*
X481477Y91179D01*
X480726Y91930D01*
X479806Y92461D01*
X478779Y92736D01*
D02*
G37*
G36*
X468779D02*
X467717D01*
X466690Y92461D01*
X465770Y91930D01*
X465019Y91179D01*
X464488Y90258D01*
X464213Y89232D01*
Y88169D01*
X464488Y87143D01*
X465019Y86223D01*
X465770Y85472D01*
X466690Y84940D01*
X467717Y84665D01*
X468779D01*
X469806Y84940D01*
X470726Y85472D01*
X471477Y86223D01*
X472008Y87143D01*
X472284Y88169D01*
Y89232D01*
X472008Y90258D01*
X471477Y91179D01*
X470726Y91930D01*
X469806Y92461D01*
X468779Y92736D01*
D02*
G37*
G36*
X458779D02*
X457717D01*
X456690Y92461D01*
X455770Y91930D01*
X455019Y91179D01*
X454488Y90258D01*
X454213Y89232D01*
Y88169D01*
X454488Y87143D01*
X455019Y86223D01*
X455770Y85472D01*
X456690Y84940D01*
X457717Y84665D01*
X458779D01*
X459806Y84940D01*
X460726Y85472D01*
X461477Y86223D01*
X462008Y87143D01*
X462284Y88169D01*
Y89232D01*
X462008Y90258D01*
X461477Y91179D01*
X460726Y91930D01*
X459806Y92461D01*
X458779Y92736D01*
D02*
G37*
G36*
X448779D02*
X447717D01*
X446690Y92461D01*
X445770Y91930D01*
X445019Y91179D01*
X444488Y90258D01*
X444213Y89232D01*
Y88169D01*
X444488Y87143D01*
X445019Y86223D01*
X445770Y85472D01*
X446690Y84940D01*
X447717Y84665D01*
X448779D01*
X449806Y84940D01*
X450726Y85472D01*
X451477Y86223D01*
X452008Y87143D01*
X452283Y88169D01*
Y89232D01*
X452008Y90258D01*
X451477Y91179D01*
X450726Y91930D01*
X449806Y92461D01*
X448779Y92736D01*
D02*
G37*
G36*
X438779D02*
X437717D01*
X436690Y92461D01*
X435770Y91930D01*
X435019Y91179D01*
X434488Y90258D01*
X434213Y89232D01*
Y88169D01*
X434488Y87143D01*
X435019Y86223D01*
X435770Y85472D01*
X436690Y84940D01*
X437717Y84665D01*
X438779D01*
X439806Y84940D01*
X440726Y85472D01*
X441477Y86223D01*
X442008Y87143D01*
X442283Y88169D01*
Y89232D01*
X442008Y90258D01*
X441477Y91179D01*
X440726Y91930D01*
X439806Y92461D01*
X438779Y92736D01*
D02*
G37*
G36*
X428779D02*
X427717D01*
X426690Y92461D01*
X425770Y91930D01*
X425019Y91179D01*
X424488Y90258D01*
X424213Y89232D01*
Y88169D01*
X424488Y87143D01*
X425019Y86223D01*
X425770Y85472D01*
X426690Y84940D01*
X427717Y84665D01*
X428779D01*
X429806Y84940D01*
X430726Y85472D01*
X431477Y86223D01*
X432008Y87143D01*
X432283Y88169D01*
Y89232D01*
X432008Y90258D01*
X431477Y91179D01*
X430726Y91930D01*
X429806Y92461D01*
X428779Y92736D01*
D02*
G37*
G36*
X418779D02*
X417717D01*
X416690Y92461D01*
X415770Y91930D01*
X415019Y91179D01*
X414488Y90258D01*
X414213Y89232D01*
Y88169D01*
X414488Y87143D01*
X415019Y86223D01*
X415770Y85472D01*
X416690Y84940D01*
X417717Y84665D01*
X418779D01*
X419806Y84940D01*
X420726Y85472D01*
X421477Y86223D01*
X422008Y87143D01*
X422284Y88169D01*
Y89232D01*
X422008Y90258D01*
X421477Y91179D01*
X420726Y91930D01*
X419806Y92461D01*
X418779Y92736D01*
D02*
G37*
G36*
X425804Y58228D02*
X424353D01*
X422951Y57853D01*
X421694Y57127D01*
X420668Y56101D01*
X419943Y54844D01*
X419567Y53442D01*
Y51991D01*
X419943Y50589D01*
X420668Y49332D01*
X421694Y48306D01*
X422951Y47580D01*
X424353Y47205D01*
X425804D01*
X427206Y47580D01*
X428463Y48306D01*
X429489Y49332D01*
X430215Y50589D01*
X430590Y51991D01*
Y53442D01*
X430215Y54844D01*
X429489Y56101D01*
X428463Y57127D01*
X427206Y57853D01*
X425804Y58228D01*
D02*
G37*
G36*
X394308D02*
X392857D01*
X391455Y57853D01*
X390198Y57127D01*
X389172Y56101D01*
X388446Y54844D01*
X388071Y53442D01*
Y51991D01*
X388446Y50589D01*
X389172Y49332D01*
X390198Y48306D01*
X391455Y47580D01*
X392857Y47205D01*
X394308D01*
X395710Y47580D01*
X396967Y48306D01*
X397993Y49332D01*
X398719Y50589D01*
X399095Y51991D01*
Y53442D01*
X398719Y54844D01*
X397993Y56101D01*
X396967Y57127D01*
X395710Y57853D01*
X394308Y58228D01*
D02*
G37*
G36*
X362812D02*
X361361D01*
X359959Y57853D01*
X358702Y57127D01*
X357676Y56101D01*
X356950Y54844D01*
X356575Y53442D01*
Y51991D01*
X356950Y50589D01*
X357676Y49332D01*
X358702Y48306D01*
X359959Y47580D01*
X361361Y47205D01*
X362812D01*
X364214Y47580D01*
X365471Y48306D01*
X366497Y49332D01*
X367223Y50589D01*
X367598Y51991D01*
Y53442D01*
X367223Y54844D01*
X366497Y56101D01*
X365471Y57127D01*
X364214Y57853D01*
X362812Y58228D01*
D02*
G37*
G36*
X331316D02*
X329865D01*
X328463Y57853D01*
X327206Y57127D01*
X326180Y56101D01*
X325454Y54844D01*
X325079Y53442D01*
Y51991D01*
X325454Y50589D01*
X326180Y49332D01*
X327206Y48306D01*
X328463Y47580D01*
X329865Y47205D01*
X331316D01*
X332718Y47580D01*
X333975Y48306D01*
X335001Y49332D01*
X335727Y50589D01*
X336102Y51991D01*
Y53442D01*
X335727Y54844D01*
X335001Y56101D01*
X333975Y57127D01*
X332718Y57853D01*
X331316Y58228D01*
D02*
G37*
G36*
X425804Y24764D02*
X424353D01*
X422951Y24388D01*
X421694Y23663D01*
X420668Y22636D01*
X419943Y21379D01*
X419567Y19978D01*
Y18526D01*
X419943Y17124D01*
X420668Y15868D01*
X421694Y14841D01*
X422951Y14116D01*
X424353Y13740D01*
X425804D01*
X427206Y14116D01*
X428463Y14841D01*
X429489Y15868D01*
X430215Y17124D01*
X430590Y18526D01*
Y19978D01*
X430215Y21379D01*
X429489Y22636D01*
X428463Y23663D01*
X427206Y24388D01*
X425804Y24764D01*
D02*
G37*
G36*
X394308D02*
X392857D01*
X391455Y24388D01*
X390198Y23663D01*
X389172Y22636D01*
X388446Y21379D01*
X388071Y19978D01*
Y18526D01*
X388446Y17124D01*
X389172Y15868D01*
X390198Y14841D01*
X391455Y14116D01*
X392857Y13740D01*
X394308D01*
X395710Y14116D01*
X396967Y14841D01*
X397993Y15868D01*
X398719Y17124D01*
X399095Y18526D01*
Y19978D01*
X398719Y21379D01*
X397993Y22636D01*
X396967Y23663D01*
X395710Y24388D01*
X394308Y24764D01*
D02*
G37*
G36*
X362812D02*
X361361D01*
X359959Y24388D01*
X358702Y23663D01*
X357676Y22636D01*
X356950Y21379D01*
X356575Y19978D01*
Y18526D01*
X356950Y17124D01*
X357676Y15868D01*
X358702Y14841D01*
X359959Y14116D01*
X361361Y13740D01*
X362812D01*
X364214Y14116D01*
X365471Y14841D01*
X366497Y15868D01*
X367223Y17124D01*
X367598Y18526D01*
Y19978D01*
X367223Y21379D01*
X366497Y22636D01*
X365471Y23663D01*
X364214Y24388D01*
X362812Y24764D01*
D02*
G37*
G36*
X331316D02*
X329865D01*
X328463Y24388D01*
X327206Y23663D01*
X326180Y22636D01*
X325454Y21379D01*
X325079Y19978D01*
Y18526D01*
X325454Y17124D01*
X326180Y15868D01*
X327206Y14841D01*
X328463Y14116D01*
X329865Y13740D01*
X331316D01*
X332718Y14116D01*
X333975Y14841D01*
X335001Y15868D01*
X335727Y17124D01*
X336102Y18526D01*
Y19978D01*
X335727Y21379D01*
X335001Y22636D01*
X333975Y23663D01*
X332718Y24388D01*
X331316Y24764D01*
D02*
G37*
G36*
X53404Y116634D02*
X52895D01*
X52425Y116439D01*
X52065Y116079D01*
X51870Y115609D01*
Y115100D01*
X52065Y114630D01*
X52425Y114270D01*
X52895Y114075D01*
X53404D01*
X53874Y114270D01*
X54234Y114630D01*
X54429Y115100D01*
Y115609D01*
X54234Y116079D01*
X53874Y116439D01*
X53404Y116634D01*
D02*
G37*
G36*
X48286D02*
X47777D01*
X47307Y116439D01*
X46947Y116079D01*
X46752Y115609D01*
Y115100D01*
X46947Y114630D01*
X47307Y114270D01*
X47777Y114075D01*
X48286D01*
X48756Y114270D01*
X49116Y114630D01*
X49311Y115100D01*
Y115609D01*
X49116Y116079D01*
X48756Y116439D01*
X48286Y116634D01*
D02*
G37*
G36*
X58128Y116240D02*
X57620D01*
X57149Y116045D01*
X56789Y115685D01*
X56595Y115215D01*
Y114706D01*
X56789Y114236D01*
X57149Y113876D01*
X57620Y113681D01*
X58128D01*
X58599Y113876D01*
X58959Y114236D01*
X59154Y114706D01*
Y115215D01*
X58959Y115685D01*
X58599Y116045D01*
X58128Y116240D01*
D02*
G37*
G36*
X78207Y114665D02*
X77698D01*
X77228Y114471D01*
X76868Y114111D01*
X76673Y113640D01*
Y113131D01*
X76868Y112661D01*
X77228Y112301D01*
X77698Y112106D01*
X78207D01*
X78678Y112301D01*
X79037Y112661D01*
X79232Y113131D01*
Y113640D01*
X79037Y114111D01*
X78678Y114471D01*
X78207Y114665D01*
D02*
G37*
G36*
X43620Y112992D02*
X42994D01*
X42415Y112752D01*
X41972Y112309D01*
X41732Y111731D01*
Y111104D01*
X41972Y110525D01*
X42415Y110082D01*
X42994Y109843D01*
X43620D01*
X44199Y110082D01*
X44642Y110525D01*
X44882Y111104D01*
Y111731D01*
X44642Y112309D01*
X44199Y112752D01*
X43620Y112992D01*
D02*
G37*
G36*
X108522Y108366D02*
X108013D01*
X107543Y108171D01*
X107183Y107811D01*
X106988Y107341D01*
Y106832D01*
X107183Y106362D01*
X107543Y106002D01*
X108013Y105807D01*
X108522D01*
X108993Y106002D01*
X109353Y106362D01*
X109547Y106832D01*
Y107341D01*
X109353Y107811D01*
X108993Y108171D01*
X108522Y108366D01*
D02*
G37*
G36*
X104192D02*
X103682D01*
X103212Y108171D01*
X102852Y107811D01*
X102657Y107341D01*
Y106832D01*
X102852Y106362D01*
X103212Y106002D01*
X103682Y105807D01*
X104192D01*
X104662Y106002D01*
X105022Y106362D01*
X105217Y106832D01*
Y107341D01*
X105022Y107811D01*
X104662Y108171D01*
X104192Y108366D01*
D02*
G37*
G36*
X84113Y99311D02*
X83604D01*
X83134Y99116D01*
X82774Y98756D01*
X82579Y98286D01*
Y97777D01*
X82774Y97307D01*
X83134Y96947D01*
X83604Y96752D01*
X84113D01*
X84583Y96947D01*
X84943Y97307D01*
X85138Y97777D01*
Y98286D01*
X84943Y98756D01*
X84583Y99116D01*
X84113Y99311D01*
D02*
G37*
G36*
X64821Y98130D02*
X64312D01*
X63842Y97935D01*
X63482Y97575D01*
X63287Y97105D01*
Y96596D01*
X63482Y96126D01*
X63842Y95766D01*
X64312Y95571D01*
X64821D01*
X65292Y95766D01*
X65652Y96126D01*
X65847Y96596D01*
Y97105D01*
X65652Y97575D01*
X65292Y97935D01*
X64821Y98130D01*
D02*
G37*
G36*
X69940Y93405D02*
X69431D01*
X68960Y93211D01*
X68600Y92851D01*
X68405Y92380D01*
Y91872D01*
X68600Y91401D01*
X68960Y91041D01*
X69431Y90847D01*
X69940D01*
X70410Y91041D01*
X70770Y91401D01*
X70965Y91872D01*
Y92380D01*
X70770Y92851D01*
X70410Y93211D01*
X69940Y93405D01*
D02*
G37*
G36*
X43562Y87106D02*
X43053D01*
X42582Y86911D01*
X42222Y86552D01*
X42028Y86081D01*
Y85572D01*
X42222Y85102D01*
X42582Y84742D01*
X43053Y84547D01*
X43562D01*
X44032Y84742D01*
X44392Y85102D01*
X44587Y85572D01*
Y86081D01*
X44392Y86552D01*
X44032Y86911D01*
X43562Y87106D01*
D02*
G37*
G36*
X25058Y85925D02*
X24549D01*
X24078Y85730D01*
X23718Y85370D01*
X23524Y84900D01*
Y84391D01*
X23718Y83921D01*
X24078Y83561D01*
X24549Y83366D01*
X25058D01*
X25528Y83561D01*
X25888Y83921D01*
X26083Y84391D01*
Y84900D01*
X25888Y85370D01*
X25528Y85730D01*
X25058Y85925D01*
D02*
G37*
G36*
X56219Y85827D02*
X55592D01*
X55014Y85587D01*
X54571Y85144D01*
X54331Y84565D01*
Y83939D01*
X54571Y83360D01*
X55014Y82917D01*
X55592Y82677D01*
X56219D01*
X56798Y82917D01*
X57241Y83360D01*
X57480Y83939D01*
Y84565D01*
X57241Y85144D01*
X56798Y85587D01*
X56219Y85827D01*
D02*
G37*
G36*
X76632Y60335D02*
X76123D01*
X75653Y60140D01*
X75293Y59780D01*
X75099Y59310D01*
Y58801D01*
X75293Y58330D01*
X75653Y57970D01*
X76123Y57776D01*
X76632D01*
X77103Y57970D01*
X77463Y58330D01*
X77658Y58801D01*
Y59310D01*
X77463Y59780D01*
X77103Y60140D01*
X76632Y60335D01*
D02*
G37*
G36*
X78366Y47028D02*
X77303D01*
X76277Y46753D01*
X75357Y46221D01*
X74606Y45470D01*
X74074Y44550D01*
X73799Y43523D01*
Y42461D01*
X74074Y41434D01*
X74606Y40514D01*
X75357Y39763D01*
X76277Y39232D01*
X77303Y38957D01*
X78366D01*
X79392Y39232D01*
X80313Y39763D01*
X81064Y40514D01*
X81595Y41434D01*
X81870Y42461D01*
Y43523D01*
X81595Y44550D01*
X81064Y45470D01*
X80313Y46221D01*
X79392Y46753D01*
X78366Y47028D01*
D02*
G37*
G36*
X67460D02*
X66398D01*
X65372Y46753D01*
X64451Y46221D01*
X63700Y45470D01*
X63169Y44550D01*
X62894Y43523D01*
Y42461D01*
X63169Y41434D01*
X63700Y40514D01*
X64451Y39763D01*
X65372Y39232D01*
X66398Y38957D01*
X67460D01*
X68487Y39232D01*
X69407Y39763D01*
X70158Y40514D01*
X70689Y41434D01*
X70965Y42461D01*
Y43523D01*
X70689Y44550D01*
X70158Y45470D01*
X69407Y46221D01*
X68487Y46753D01*
X67460Y47028D01*
D02*
G37*
G36*
X56555D02*
X55492D01*
X54466Y46753D01*
X53546Y46221D01*
X52794Y45470D01*
X52263Y44550D01*
X51988Y43523D01*
Y42461D01*
X52263Y41434D01*
X52794Y40514D01*
X53546Y39763D01*
X54466Y39232D01*
X55492Y38957D01*
X56555D01*
X57581Y39232D01*
X58501Y39763D01*
X59253Y40514D01*
X59784Y41434D01*
X60059Y42461D01*
Y43523D01*
X59784Y44550D01*
X59253Y45470D01*
X58501Y46221D01*
X57581Y46753D01*
X56555Y47028D01*
D02*
G37*
G36*
X45649D02*
X44587D01*
X43560Y46753D01*
X42640Y46221D01*
X41889Y45470D01*
X41358Y44550D01*
X41083Y43523D01*
Y42461D01*
X41358Y41434D01*
X41889Y40514D01*
X42640Y39763D01*
X43560Y39232D01*
X44587Y38957D01*
X45649D01*
X46676Y39232D01*
X47596Y39763D01*
X48347Y40514D01*
X48878Y41434D01*
X49154Y42461D01*
Y43523D01*
X48878Y44550D01*
X48347Y45470D01*
X47596Y46221D01*
X46676Y46753D01*
X45649Y47028D01*
D02*
G37*
G36*
X90364Y47075D02*
X87116D01*
X86175Y46888D01*
X85378Y46355D01*
X84845Y45557D01*
X84658Y44616D01*
Y41368D01*
X84845Y40427D01*
X85378Y39630D01*
X86175Y39097D01*
X87116Y38910D01*
X90364D01*
X91305Y39097D01*
X92103Y39630D01*
X92636Y40427D01*
X92823Y41368D01*
Y44616D01*
X92636Y45557D01*
X92103Y46355D01*
X91305Y46888D01*
X90364Y47075D01*
D02*
G37*
G36*
X83819Y35846D02*
X82756D01*
X81730Y35571D01*
X80810Y35040D01*
X80058Y34289D01*
X79527Y33369D01*
X79252Y32342D01*
Y31280D01*
X79527Y30253D01*
X80058Y29333D01*
X80810Y28582D01*
X81730Y28051D01*
X82756Y27776D01*
X83819D01*
X84845Y28051D01*
X85765Y28582D01*
X86516Y29333D01*
X87048Y30253D01*
X87323Y31280D01*
Y32342D01*
X87048Y33369D01*
X86516Y34289D01*
X85765Y35040D01*
X84845Y35571D01*
X83819Y35846D01*
D02*
G37*
G36*
X72913D02*
X71851D01*
X70824Y35571D01*
X69904Y35040D01*
X69153Y34289D01*
X68621Y33369D01*
X68347Y32342D01*
Y31280D01*
X68621Y30253D01*
X69153Y29333D01*
X69904Y28582D01*
X70824Y28051D01*
X71851Y27776D01*
X72913D01*
X73940Y28051D01*
X74860Y28582D01*
X75611Y29333D01*
X76142Y30253D01*
X76417Y31280D01*
Y32342D01*
X76142Y33369D01*
X75611Y34289D01*
X74860Y35040D01*
X73940Y35571D01*
X72913Y35846D01*
D02*
G37*
G36*
X62008D02*
X60945D01*
X59919Y35571D01*
X58999Y35040D01*
X58247Y34289D01*
X57716Y33369D01*
X57441Y32342D01*
Y31280D01*
X57716Y30253D01*
X58247Y29333D01*
X58999Y28582D01*
X59919Y28051D01*
X60945Y27776D01*
X62008D01*
X63034Y28051D01*
X63954Y28582D01*
X64705Y29333D01*
X65237Y30253D01*
X65512Y31280D01*
Y32342D01*
X65237Y33369D01*
X64705Y34289D01*
X63954Y35040D01*
X63034Y35571D01*
X62008Y35846D01*
D02*
G37*
G36*
X51102D02*
X50040D01*
X49013Y35571D01*
X48093Y35040D01*
X47342Y34289D01*
X46810Y33369D01*
X46535Y32342D01*
Y31280D01*
X46810Y30253D01*
X47342Y29333D01*
X48093Y28582D01*
X49013Y28051D01*
X50040Y27776D01*
X51102D01*
X52128Y28051D01*
X53049Y28582D01*
X53800Y29333D01*
X54331Y30253D01*
X54606Y31280D01*
Y32342D01*
X54331Y33369D01*
X53800Y34289D01*
X53049Y35040D01*
X52128Y35571D01*
X51102Y35846D01*
D02*
G37*
G36*
X18770Y50787D02*
X16663D01*
X14582Y50458D01*
X12578Y49807D01*
X10701Y48850D01*
X8996Y47612D01*
X7506Y46122D01*
X6268Y44417D01*
X5311Y42540D01*
X4660Y40536D01*
X4331Y38455D01*
Y36348D01*
X4660Y34267D01*
X5311Y32263D01*
X6268Y30386D01*
X7506Y28681D01*
X8996Y27191D01*
X10701Y25953D01*
X12578Y24996D01*
X14582Y24345D01*
X16663Y24016D01*
X18770D01*
X20851Y24345D01*
X22855Y24996D01*
X24732Y25953D01*
X26437Y27191D01*
X27927Y28681D01*
X29165Y30386D01*
X30122Y32263D01*
X30773Y34267D01*
X31102Y36348D01*
Y38455D01*
X30773Y40536D01*
X30122Y42540D01*
X29165Y44417D01*
X27927Y46122D01*
X26437Y47612D01*
X24732Y48850D01*
X22855Y49807D01*
X20851Y50458D01*
X18770Y50787D01*
D02*
G37*
G36*
X207145Y116635D02*
X206636D01*
X206166Y116440D01*
X205806Y116080D01*
X205611Y115610D01*
Y115101D01*
X205806Y114630D01*
X206166Y114270D01*
X206636Y114076D01*
X207145D01*
X207615Y114270D01*
X207975Y114630D01*
X208170Y115101D01*
Y115610D01*
X207975Y116080D01*
X207615Y116440D01*
X207145Y116635D01*
D02*
G37*
G36*
X202027D02*
X201518D01*
X201047Y116440D01*
X200688Y116080D01*
X200493Y115610D01*
Y115101D01*
X200688Y114630D01*
X201047Y114270D01*
X201518Y114076D01*
X202027D01*
X202497Y114270D01*
X202857Y114630D01*
X203052Y115101D01*
Y115610D01*
X202857Y116080D01*
X202497Y116440D01*
X202027Y116635D01*
D02*
G37*
G36*
X211869Y116241D02*
X211360D01*
X210890Y116046D01*
X210530Y115686D01*
X210335Y115216D01*
Y114707D01*
X210530Y114237D01*
X210890Y113877D01*
X211360Y113682D01*
X211869D01*
X212340Y113877D01*
X212700Y114237D01*
X212894Y114707D01*
Y115216D01*
X212700Y115686D01*
X212340Y116046D01*
X211869Y116241D01*
D02*
G37*
G36*
X231948Y114666D02*
X231439D01*
X230969Y114471D01*
X230609Y114111D01*
X230414Y113641D01*
Y113132D01*
X230609Y112662D01*
X230969Y112302D01*
X231439Y112107D01*
X231948D01*
X232418Y112302D01*
X232778Y112662D01*
X232973Y113132D01*
Y113641D01*
X232778Y114111D01*
X232418Y114471D01*
X231948Y114666D01*
D02*
G37*
G36*
X197361Y112993D02*
X196735D01*
X196156Y112753D01*
X195713Y112310D01*
X195473Y111731D01*
Y111105D01*
X195713Y110526D01*
X196156Y110083D01*
X196735Y109843D01*
X197361D01*
X197940Y110083D01*
X198383Y110526D01*
X198623Y111105D01*
Y111731D01*
X198383Y112310D01*
X197940Y112753D01*
X197361Y112993D01*
D02*
G37*
G36*
X262263Y108367D02*
X261754D01*
X261284Y108172D01*
X260924Y107812D01*
X260729Y107342D01*
Y106833D01*
X260924Y106363D01*
X261284Y106003D01*
X261754Y105808D01*
X262263D01*
X262733Y106003D01*
X263093Y106363D01*
X263288Y106833D01*
Y107342D01*
X263093Y107812D01*
X262733Y108172D01*
X262263Y108367D01*
D02*
G37*
G36*
X257932D02*
X257423D01*
X256953Y108172D01*
X256593Y107812D01*
X256398Y107342D01*
Y106833D01*
X256593Y106363D01*
X256953Y106003D01*
X257423Y105808D01*
X257932D01*
X258403Y106003D01*
X258763Y106363D01*
X258957Y106833D01*
Y107342D01*
X258763Y107812D01*
X258403Y108172D01*
X257932Y108367D01*
D02*
G37*
G36*
X237854Y99312D02*
X237345D01*
X236874Y99117D01*
X236514Y98757D01*
X236319Y98287D01*
Y97778D01*
X236514Y97307D01*
X236874Y96948D01*
X237345Y96753D01*
X237854D01*
X238324Y96948D01*
X238684Y97307D01*
X238878Y97778D01*
Y98287D01*
X238684Y98757D01*
X238324Y99117D01*
X237854Y99312D01*
D02*
G37*
G36*
X218562Y98131D02*
X218053D01*
X217583Y97936D01*
X217223Y97576D01*
X217028Y97106D01*
Y96597D01*
X217223Y96126D01*
X217583Y95766D01*
X218053Y95572D01*
X218562D01*
X219033Y95766D01*
X219392Y96126D01*
X219587Y96597D01*
Y97106D01*
X219392Y97576D01*
X219033Y97936D01*
X218562Y98131D01*
D02*
G37*
G36*
X223680Y93406D02*
X223171D01*
X222701Y93212D01*
X222341Y92852D01*
X222146Y92381D01*
Y91872D01*
X222341Y91402D01*
X222701Y91042D01*
X223171Y90847D01*
X223680D01*
X224151Y91042D01*
X224511Y91402D01*
X224705Y91872D01*
Y92381D01*
X224511Y92852D01*
X224151Y93212D01*
X223680Y93406D01*
D02*
G37*
G36*
X197302Y87107D02*
X196793D01*
X196323Y86912D01*
X195963Y86552D01*
X195768Y86082D01*
Y85573D01*
X195963Y85103D01*
X196323Y84743D01*
X196793Y84548D01*
X197302D01*
X197773Y84743D01*
X198133Y85103D01*
X198327Y85573D01*
Y86082D01*
X198133Y86552D01*
X197773Y86912D01*
X197302Y87107D01*
D02*
G37*
G36*
X178798Y85926D02*
X178289D01*
X177819Y85731D01*
X177459Y85371D01*
X177264Y84901D01*
Y84392D01*
X177459Y83922D01*
X177819Y83562D01*
X178289Y83367D01*
X178798D01*
X179269Y83562D01*
X179629Y83922D01*
X179823Y84392D01*
Y84901D01*
X179629Y85371D01*
X179269Y85731D01*
X178798Y85926D01*
D02*
G37*
G36*
X209960Y85828D02*
X209333D01*
X208754Y85588D01*
X208311Y85145D01*
X208071Y84566D01*
Y83939D01*
X208311Y83361D01*
X208754Y82918D01*
X209333Y82678D01*
X209960D01*
X210538Y82918D01*
X210981Y83361D01*
X211221Y83939D01*
Y84566D01*
X210981Y85145D01*
X210538Y85588D01*
X209960Y85828D01*
D02*
G37*
G36*
X230373Y60335D02*
X229864D01*
X229394Y60141D01*
X229034Y59781D01*
X228839Y59310D01*
Y58801D01*
X229034Y58331D01*
X229394Y57971D01*
X229864Y57776D01*
X230373D01*
X230843Y57971D01*
X231203Y58331D01*
X231398Y58801D01*
Y59310D01*
X231203Y59781D01*
X230843Y60141D01*
X230373Y60335D01*
D02*
G37*
G36*
X232107Y47028D02*
X231044D01*
X230018Y46753D01*
X229098Y46222D01*
X228346Y45471D01*
X227815Y44550D01*
X227540Y43524D01*
Y42462D01*
X227815Y41435D01*
X228346Y40515D01*
X229098Y39764D01*
X230018Y39233D01*
X231044Y38958D01*
X232107D01*
X233133Y39233D01*
X234053Y39764D01*
X234805Y40515D01*
X235336Y41435D01*
X235611Y42462D01*
Y43524D01*
X235336Y44550D01*
X234805Y45471D01*
X234053Y46222D01*
X233133Y46753D01*
X232107Y47028D01*
D02*
G37*
G36*
X221201D02*
X220139D01*
X219112Y46753D01*
X218192Y46222D01*
X217441Y45471D01*
X216909Y44550D01*
X216634Y43524D01*
Y42462D01*
X216909Y41435D01*
X217441Y40515D01*
X218192Y39764D01*
X219112Y39233D01*
X220139Y38958D01*
X221201D01*
X222228Y39233D01*
X223148Y39764D01*
X223899Y40515D01*
X224430Y41435D01*
X224705Y42462D01*
Y43524D01*
X224430Y44550D01*
X223899Y45471D01*
X223148Y46222D01*
X222228Y46753D01*
X221201Y47028D01*
D02*
G37*
G36*
X210296D02*
X209233D01*
X208207Y46753D01*
X207287Y46222D01*
X206535Y45471D01*
X206004Y44550D01*
X205729Y43524D01*
Y42462D01*
X206004Y41435D01*
X206535Y40515D01*
X207287Y39764D01*
X208207Y39233D01*
X209233Y38958D01*
X210296D01*
X211322Y39233D01*
X212242Y39764D01*
X212994Y40515D01*
X213525Y41435D01*
X213800Y42462D01*
Y43524D01*
X213525Y44550D01*
X212994Y45471D01*
X212242Y46222D01*
X211322Y46753D01*
X210296Y47028D01*
D02*
G37*
G36*
X199390D02*
X198328D01*
X197301Y46753D01*
X196381Y46222D01*
X195630Y45471D01*
X195098Y44550D01*
X194823Y43524D01*
Y42462D01*
X195098Y41435D01*
X195630Y40515D01*
X196381Y39764D01*
X197301Y39233D01*
X198328Y38958D01*
X199390D01*
X200416Y39233D01*
X201337Y39764D01*
X202088Y40515D01*
X202619Y41435D01*
X202894Y42462D01*
Y43524D01*
X202619Y44550D01*
X202088Y45471D01*
X201337Y46222D01*
X200416Y46753D01*
X199390Y47028D01*
D02*
G37*
G36*
X244105Y47076D02*
X240857D01*
X239916Y46888D01*
X239118Y46356D01*
X238585Y45558D01*
X238398Y44617D01*
Y41369D01*
X238585Y40428D01*
X239118Y39630D01*
X239916Y39097D01*
X240857Y38910D01*
X244105D01*
X245046Y39097D01*
X245843Y39630D01*
X246376Y40428D01*
X246564Y41369D01*
Y44617D01*
X246376Y45558D01*
X245843Y46356D01*
X245046Y46888D01*
X244105Y47076D01*
D02*
G37*
G36*
X237559Y35847D02*
X236497D01*
X235471Y35572D01*
X234550Y35041D01*
X233799Y34290D01*
X233268Y33369D01*
X232993Y32343D01*
Y31280D01*
X233268Y30254D01*
X233799Y29334D01*
X234550Y28583D01*
X235471Y28051D01*
X236497Y27776D01*
X237559D01*
X238586Y28051D01*
X239506Y28583D01*
X240257Y29334D01*
X240789Y30254D01*
X241064Y31280D01*
Y32343D01*
X240789Y33369D01*
X240257Y34290D01*
X239506Y35041D01*
X238586Y35572D01*
X237559Y35847D01*
D02*
G37*
G36*
X226654D02*
X225591D01*
X224565Y35572D01*
X223645Y35041D01*
X222894Y34290D01*
X222362Y33369D01*
X222087Y32343D01*
Y31280D01*
X222362Y30254D01*
X222894Y29334D01*
X223645Y28583D01*
X224565Y28051D01*
X225591Y27776D01*
X226654D01*
X227680Y28051D01*
X228600Y28583D01*
X229352Y29334D01*
X229883Y30254D01*
X230158Y31280D01*
Y32343D01*
X229883Y33369D01*
X229352Y34290D01*
X228600Y35041D01*
X227680Y35572D01*
X226654Y35847D01*
D02*
G37*
G36*
X215748D02*
X214686D01*
X213660Y35572D01*
X212739Y35041D01*
X211988Y34290D01*
X211457Y33369D01*
X211182Y32343D01*
Y31280D01*
X211457Y30254D01*
X211988Y29334D01*
X212739Y28583D01*
X213660Y28051D01*
X214686Y27776D01*
X215748D01*
X216775Y28051D01*
X217695Y28583D01*
X218446Y29334D01*
X218977Y30254D01*
X219252Y31280D01*
Y32343D01*
X218977Y33369D01*
X218446Y34290D01*
X217695Y35041D01*
X216775Y35572D01*
X215748Y35847D01*
D02*
G37*
G36*
X204843D02*
X203780D01*
X202754Y35572D01*
X201834Y35041D01*
X201082Y34290D01*
X200551Y33369D01*
X200276Y32343D01*
Y31280D01*
X200551Y30254D01*
X201082Y29334D01*
X201834Y28583D01*
X202754Y28051D01*
X203780Y27776D01*
X204843D01*
X205869Y28051D01*
X206789Y28583D01*
X207541Y29334D01*
X208072Y30254D01*
X208347Y31280D01*
Y32343D01*
X208072Y33369D01*
X207541Y34290D01*
X206789Y35041D01*
X205869Y35572D01*
X204843Y35847D01*
D02*
G37*
%LPD*%
D36*
X448248Y98701D02*
D03*
D41*
X178544Y76379D02*
D03*
X203347Y85828D02*
D03*
X216733Y87402D02*
D03*
X213583D02*
D03*
X59842Y87402D02*
D03*
X62992D02*
D03*
X49606Y85827D02*
D03*
X24803Y76378D02*
D03*
D42*
X266733Y115749D02*
D03*
X217520Y166536D02*
D03*
Y169292D02*
D03*
X63779Y166535D02*
D03*
Y169291D02*
D03*
X112992Y115748D02*
D03*
M02*
