G04*
G04 #@! TF.GenerationSoftware,Altium Limited,Altium Designer,26.7.1 (11)*
G04*
G04 Layer_Color=16711935*
G04 Board_Origin=18197186|10375118*
%FSLAX25Y25*%
%MOIN*%
G70*
G04*
G04 #@! TF.SameCoordinates,9A6B45A5-7AEA-4761-84FC-0EBD5BAD159F*
G04*
G04*
G04 #@! TF.FilePolarity,Negative*
G04*
G01*
G75*
%ADD35R,0.06496X0.06496*%
%ADD36C,0.06496*%
%ADD37C,0.12205*%
G04:AMPARAMS|DCode=38|XSize=64.96mil|YSize=64.96mil|CornerRadius=16.24mil|HoleSize=0mil|Usage=FLASHONLY|Rotation=0.000|XOffset=0mil|YOffset=0mil|HoleType=Round|Shape=RoundedRectangle|*
%AMROUNDEDRECTD38*
21,1,0.06496,0.03248,0,0,0.0*
21,1,0.03248,0.06496,0,0,0.0*
1,1,0.03248,0.01624,-0.01624*
1,1,0.03248,-0.01624,-0.01624*
1,1,0.03248,-0.01624,0.01624*
1,1,0.03248,0.01624,0.01624*
%
%ADD38ROUNDEDRECTD38*%
%ADD39C,0.18898*%
%ADD40C,0.08268*%
%ADD41C,0.01772*%
%ADD42C,0.02362*%
D35*
X418248Y98701D02*
D03*
D36*
Y88701D02*
D03*
X428248Y98701D02*
D03*
Y88701D02*
D03*
X438248Y98701D02*
D03*
Y88701D02*
D03*
X448248Y98701D02*
D03*
Y88701D02*
D03*
X458248Y98701D02*
D03*
Y88701D02*
D03*
X468248Y98701D02*
D03*
Y88701D02*
D03*
X478248Y98701D02*
D03*
Y88701D02*
D03*
X220670Y42993D02*
D03*
X209764D02*
D03*
X198859D02*
D03*
X231575D02*
D03*
X237028Y31812D02*
D03*
X226123D02*
D03*
X215217D02*
D03*
X204312D02*
D03*
X66929Y42992D02*
D03*
X56024D02*
D03*
X45118D02*
D03*
X77835D02*
D03*
X83287Y31811D02*
D03*
X72382D02*
D03*
X61476D02*
D03*
X50571D02*
D03*
D37*
X130315Y194882D02*
D03*
D38*
X242481Y42993D02*
D03*
X88740Y42992D02*
D03*
D39*
X171457Y37402D02*
D03*
X269882D02*
D03*
X17717Y37402D02*
D03*
X116142D02*
D03*
D40*
X425079Y19252D02*
D03*
Y52716D02*
D03*
X393583Y19252D02*
D03*
Y52716D02*
D03*
X362087Y19252D02*
D03*
Y52716D02*
D03*
X330591Y19252D02*
D03*
Y52716D02*
D03*
D41*
X211615Y114961D02*
D03*
X178544Y84646D02*
D03*
Y76379D02*
D03*
X230119Y59056D02*
D03*
X231694Y113387D02*
D03*
X237599Y98032D02*
D03*
X257678Y107087D02*
D03*
X262009D02*
D03*
X218308Y96851D02*
D03*
X223426Y92127D02*
D03*
X197048Y85828D02*
D03*
X203347D02*
D03*
X206890Y115355D02*
D03*
X201772D02*
D03*
X216733Y87402D02*
D03*
X213583D02*
D03*
X59842Y87402D02*
D03*
X62992D02*
D03*
X48031Y115354D02*
D03*
X53150D02*
D03*
X49606Y85827D02*
D03*
X43307D02*
D03*
X64567Y96850D02*
D03*
X108268Y107087D02*
D03*
X103937D02*
D03*
X83858Y98032D02*
D03*
X77953Y113386D02*
D03*
X76378Y59055D02*
D03*
X24803Y76378D02*
D03*
Y84646D02*
D03*
X57874Y114961D02*
D03*
D42*
X266733Y115749D02*
D03*
X209646Y84253D02*
D03*
X197048Y111418D02*
D03*
X259253Y165355D02*
D03*
Y170080D02*
D03*
X217520Y166536D02*
D03*
Y169292D02*
D03*
Y173623D02*
D03*
X210040Y176379D02*
D03*
X234843Y164174D02*
D03*
X251378Y174016D02*
D03*
X248229D02*
D03*
X97638Y174016D02*
D03*
X94488D02*
D03*
X81102Y164173D02*
D03*
X105512Y165354D02*
D03*
Y170079D02*
D03*
X63779Y166535D02*
D03*
Y169291D02*
D03*
Y173622D02*
D03*
X56299Y176378D02*
D03*
X43307Y111417D02*
D03*
X55905Y84252D02*
D03*
X112992Y115748D02*
D03*
M02*
