G04*
G04 #@! TF.GenerationSoftware,Altium Limited,Altium Designer,26.7.1 (11)*
G04*
G04 Layer_Color=8421504*
G04 Board_Origin=18197186|10375118*
%FSLAX25Y25*%
%MOIN*%
G70*
G04*
G04 #@! TF.SameCoordinates,9A6B45A5-7AEA-4761-84FC-0EBD5BAD159F*
G04*
G04*
G04 #@! TF.FilePolarity,Positive*
G04*
G01*
G75*
G04:AMPARAMS|DCode=19|XSize=50mil|YSize=29.92mil|CornerRadius=7.48mil|HoleSize=0mil|Usage=FLASHONLY|Rotation=0.000|XOffset=0mil|YOffset=0mil|HoleType=Round|Shape=RoundedRectangle|*
%AMROUNDEDRECTD19*
21,1,0.05000,0.01496,0,0,0.0*
21,1,0.03504,0.02992,0,0,0.0*
1,1,0.01496,0.01752,-0.00748*
1,1,0.01496,-0.01752,-0.00748*
1,1,0.01496,-0.01752,0.00748*
1,1,0.01496,0.01752,0.00748*
%
%ADD19ROUNDEDRECTD19*%
G04:AMPARAMS|DCode=20|XSize=19.68mil|YSize=35.43mil|CornerRadius=3.25mil|HoleSize=0mil|Usage=FLASHONLY|Rotation=270.000|XOffset=0mil|YOffset=0mil|HoleType=Round|Shape=RoundedRectangle|*
%AMROUNDEDRECTD20*
21,1,0.01968,0.02894,0,0,270.0*
21,1,0.01319,0.03543,0,0,270.0*
1,1,0.00650,-0.01447,-0.00659*
1,1,0.00650,-0.01447,0.00659*
1,1,0.00650,0.01447,0.00659*
1,1,0.00650,0.01447,-0.00659*
%
%ADD20ROUNDEDRECTD20*%
G04:AMPARAMS|DCode=21|XSize=27.95mil|YSize=34.65mil|CornerRadius=4.61mil|HoleSize=0mil|Usage=FLASHONLY|Rotation=270.000|XOffset=0mil|YOffset=0mil|HoleType=Round|Shape=RoundedRectangle|*
%AMROUNDEDRECTD21*
21,1,0.02795,0.02542,0,0,270.0*
21,1,0.01873,0.03465,0,0,270.0*
1,1,0.00922,-0.01271,-0.00936*
1,1,0.00922,-0.01271,0.00936*
1,1,0.00922,0.01271,0.00936*
1,1,0.00922,0.01271,-0.00936*
%
%ADD21ROUNDEDRECTD21*%
G04:AMPARAMS|DCode=22|XSize=27.95mil|YSize=34.65mil|CornerRadius=4.61mil|HoleSize=0mil|Usage=FLASHONLY|Rotation=180.000|XOffset=0mil|YOffset=0mil|HoleType=Round|Shape=RoundedRectangle|*
%AMROUNDEDRECTD22*
21,1,0.02795,0.02542,0,0,180.0*
21,1,0.01873,0.03465,0,0,180.0*
1,1,0.00922,-0.00936,0.01271*
1,1,0.00922,0.00936,0.01271*
1,1,0.00922,0.00936,-0.01271*
1,1,0.00922,-0.00936,-0.01271*
%
%ADD22ROUNDEDRECTD22*%
G04:AMPARAMS|DCode=23|XSize=50mil|YSize=25.98mil|CornerRadius=3.9mil|HoleSize=0mil|Usage=FLASHONLY|Rotation=90.000|XOffset=0mil|YOffset=0mil|HoleType=Round|Shape=RoundedRectangle|*
%AMROUNDEDRECTD23*
21,1,0.05000,0.01819,0,0,90.0*
21,1,0.04221,0.02598,0,0,90.0*
1,1,0.00780,0.00910,0.02110*
1,1,0.00780,0.00910,-0.02110*
1,1,0.00780,-0.00910,-0.02110*
1,1,0.00780,-0.00910,0.02110*
%
%ADD23ROUNDEDRECTD23*%
G04:AMPARAMS|DCode=24|XSize=61.02mil|YSize=45.28mil|CornerRadius=4.53mil|HoleSize=0mil|Usage=FLASHONLY|Rotation=0.000|XOffset=0mil|YOffset=0mil|HoleType=Round|Shape=RoundedRectangle|*
%AMROUNDEDRECTD24*
21,1,0.06102,0.03622,0,0,0.0*
21,1,0.05197,0.04528,0,0,0.0*
1,1,0.00906,0.02598,-0.01811*
1,1,0.00906,-0.02598,-0.01811*
1,1,0.00906,-0.02598,0.01811*
1,1,0.00906,0.02598,0.01811*
%
%ADD24ROUNDEDRECTD24*%
G04:AMPARAMS|DCode=25|XSize=70.87mil|YSize=23.23mil|CornerRadius=3.83mil|HoleSize=0mil|Usage=FLASHONLY|Rotation=270.000|XOffset=0mil|YOffset=0mil|HoleType=Round|Shape=RoundedRectangle|*
%AMROUNDEDRECTD25*
21,1,0.07087,0.01556,0,0,270.0*
21,1,0.06320,0.02323,0,0,270.0*
1,1,0.00767,-0.00778,-0.03160*
1,1,0.00767,-0.00778,0.03160*
1,1,0.00767,0.00778,0.03160*
1,1,0.00767,0.00778,-0.03160*
%
%ADD25ROUNDEDRECTD25*%
%ADD26R,0.02559X0.04331*%
%ADD27O,0.02362X0.05512*%
%ADD28O,0.04134X0.02362*%
G04:AMPARAMS|DCode=29|XSize=31.5mil|YSize=39.37mil|CornerRadius=3.15mil|HoleSize=0mil|Usage=FLASHONLY|Rotation=180.000|XOffset=0mil|YOffset=0mil|HoleType=Round|Shape=RoundedRectangle|*
%AMROUNDEDRECTD29*
21,1,0.03150,0.03307,0,0,180.0*
21,1,0.02520,0.03937,0,0,180.0*
1,1,0.00630,-0.01260,0.01654*
1,1,0.00630,0.01260,0.01654*
1,1,0.00630,0.01260,-0.01654*
1,1,0.00630,-0.01260,-0.01654*
%
%ADD29ROUNDEDRECTD29*%
%ADD30R,0.03740X0.03347*%
%ADD31R,0.03543X0.02756*%
G04:AMPARAMS|DCode=32|XSize=43.31mil|YSize=65.35mil|CornerRadius=4.33mil|HoleSize=0mil|Usage=FLASHONLY|Rotation=0.000|XOffset=0mil|YOffset=0mil|HoleType=Round|Shape=RoundedRectangle|*
%AMROUNDEDRECTD32*
21,1,0.04331,0.05669,0,0,0.0*
21,1,0.03465,0.06535,0,0,0.0*
1,1,0.00866,0.01732,-0.02835*
1,1,0.00866,-0.01732,-0.02835*
1,1,0.00866,-0.01732,0.02835*
1,1,0.00866,0.01732,0.02835*
%
%ADD32ROUNDEDRECTD32*%
%ADD33R,0.05906X0.10236*%
D19*
X211968Y78091D02*
D03*
Y73090D02*
D03*
X241968Y78091D02*
D03*
Y73090D02*
D03*
X58228Y78091D02*
D03*
Y73090D02*
D03*
X88228Y78091D02*
D03*
Y73090D02*
D03*
D20*
X203347Y94804D02*
D03*
Y89056D02*
D03*
X49606Y94803D02*
D03*
Y89055D02*
D03*
X231694Y100670D02*
D03*
Y106418D02*
D03*
X77953Y100669D02*
D03*
Y106417D02*
D03*
X243505Y106418D02*
D03*
Y100670D02*
D03*
X89764Y106417D02*
D03*
Y100669D02*
D03*
X66929Y52638D02*
D03*
Y58386D02*
D03*
X220670Y52639D02*
D03*
Y58387D02*
D03*
D21*
X237599Y106969D02*
D03*
Y100906D02*
D03*
X83858Y106968D02*
D03*
Y100906D02*
D03*
X103937Y109961D02*
D03*
Y116024D02*
D03*
X257678Y109961D02*
D03*
Y116024D02*
D03*
X213583Y173505D02*
D03*
Y167442D02*
D03*
X59843Y173504D02*
D03*
Y167441D02*
D03*
X214764Y97363D02*
D03*
Y103426D02*
D03*
X61024Y97362D02*
D03*
Y103425D02*
D03*
X214764Y113268D02*
D03*
Y107205D02*
D03*
X61024Y113268D02*
D03*
Y107205D02*
D03*
X262402Y109961D02*
D03*
Y116024D02*
D03*
X108661Y109961D02*
D03*
Y116024D02*
D03*
D22*
X255985Y165355D02*
D03*
X249922D02*
D03*
X102244Y165354D02*
D03*
X96181D02*
D03*
X220552Y92127D02*
D03*
X214489D02*
D03*
X66811Y92126D02*
D03*
X60748D02*
D03*
X255985Y170080D02*
D03*
X249922D02*
D03*
X102244Y170079D02*
D03*
X96181D02*
D03*
D23*
X194134Y119017D02*
D03*
Y155001D02*
D03*
X214134D02*
D03*
X204134D02*
D03*
X214134Y119017D02*
D03*
X204292D02*
D03*
X40394Y119016D02*
D03*
Y155000D02*
D03*
X60394D02*
D03*
X50394D02*
D03*
X60394Y119016D02*
D03*
X50551D02*
D03*
D24*
X260139Y77658D02*
D03*
X251279D02*
D03*
X260137Y63288D02*
D03*
X251279D02*
D03*
X106399Y77657D02*
D03*
X97538D02*
D03*
X106397Y63287D02*
D03*
X97538D02*
D03*
D25*
X249823Y116024D02*
D03*
X244823D02*
D03*
X239823D02*
D03*
X234823D02*
D03*
Y157993D02*
D03*
X239823D02*
D03*
X244823D02*
D03*
X249823D02*
D03*
X96083Y116024D02*
D03*
X91083D02*
D03*
X86083D02*
D03*
X81083D02*
D03*
Y157992D02*
D03*
X86083D02*
D03*
X91083D02*
D03*
X96083D02*
D03*
D26*
X208268Y111418D02*
D03*
X204528D02*
D03*
X200788D02*
D03*
Y101969D02*
D03*
X208268D02*
D03*
X54528Y111417D02*
D03*
X50787D02*
D03*
X47047D02*
D03*
Y101969D02*
D03*
X54528D02*
D03*
D27*
X200394Y163190D02*
D03*
X204134D02*
D03*
X207875D02*
D03*
Y172245D02*
D03*
X200394D02*
D03*
X204134D02*
D03*
X46654Y163189D02*
D03*
X50394D02*
D03*
X54134D02*
D03*
Y172244D02*
D03*
X46654D02*
D03*
X50394D02*
D03*
D28*
X242914Y55316D02*
D03*
Y62796D02*
D03*
X233859Y59056D02*
D03*
X89173Y55315D02*
D03*
Y62795D02*
D03*
X80118Y59055D02*
D03*
D29*
X190355Y98032D02*
D03*
Y112206D02*
D03*
X221851Y98032D02*
D03*
Y112206D02*
D03*
X68110Y98032D02*
D03*
Y112205D02*
D03*
X36614Y98032D02*
D03*
Y112205D02*
D03*
D30*
X197048Y94489D02*
D03*
Y89371D02*
D03*
X43307Y89370D02*
D03*
Y94488D02*
D03*
D31*
X209646Y88190D02*
D03*
Y93702D02*
D03*
X55905Y93701D02*
D03*
Y88189D02*
D03*
D32*
X473248Y71732D02*
D03*
X461437D02*
D03*
X473248Y61890D02*
D03*
X461437D02*
D03*
X484055Y52047D02*
D03*
X472244D02*
D03*
X472342Y42205D02*
D03*
X484154D02*
D03*
D33*
X419173Y35984D02*
D03*
X430984D02*
D03*
X399488D02*
D03*
X387677D02*
D03*
X367992D02*
D03*
X356181D02*
D03*
X336496D02*
D03*
X324685D02*
D03*
M02*
