G04*
G04 #@! TF.GenerationSoftware,Altium Limited,Altium Designer,26.7.1 (11)*
G04*
G04 Layer_Physical_Order=4*
G04 Layer_Color=16711680*
G04 Board_Origin=18197186|10375118*
%FSLAX25Y25*%
%MOIN*%
G70*
G04*
G04 #@! TF.SameCoordinates,9A6B45A5-7AEA-4761-84FC-0EBD5BAD159F*
G04*
G04*
G04 #@! TF.FilePolarity,Positive*
G04*
G01*
G75*
%ADD11C,0.01968*%
%ADD13C,0.01575*%
%ADD35R,0.06496X0.06496*%
%ADD36C,0.06496*%
%ADD37C,0.12205*%
G04:AMPARAMS|DCode=38|XSize=64.96mil|YSize=64.96mil|CornerRadius=16.24mil|HoleSize=0mil|Usage=FLASHONLY|Rotation=0.000|XOffset=0mil|YOffset=0mil|HoleType=Round|Shape=RoundedRectangle|*
%AMROUNDEDRECTD38*
21,1,0.06496,0.03248,0,0,0.0*
21,1,0.03248,0.06496,0,0,0.0*
1,1,0.03248,0.01624,-0.01624*
1,1,0.03248,-0.01624,-0.01624*
1,1,0.03248,-0.01624,0.01624*
1,1,0.03248,0.01624,0.01624*
%
%ADD38ROUNDEDRECTD38*%
%ADD39C,0.18898*%
%ADD40C,0.08268*%
%ADD41C,0.01772*%
%ADD42C,0.02362*%
G36*
X149879Y196678D02*
X149979Y196644D01*
X150067Y196585D01*
X151495Y195994D01*
X151598Y195973D01*
X151693Y195926D01*
X153186Y195526D01*
X153291Y195519D01*
X153392Y195485D01*
X154923Y195284D01*
X155003Y195289D01*
X155080Y195271D01*
X155853Y195246D01*
X155879Y195250D01*
X155905Y195245D01*
X497047Y195245D01*
X497716D01*
X499042Y195070D01*
X500335Y194724D01*
X501571Y194212D01*
X502729Y193543D01*
X503791Y192729D01*
X504737Y191783D01*
X505551Y190721D01*
X506220Y189563D01*
X506732Y188327D01*
X507078Y187035D01*
X507253Y185708D01*
Y185039D01*
Y11811D01*
X507253Y11142D01*
X507078Y9816D01*
X506732Y8524D01*
X506220Y7288D01*
X505551Y6129D01*
X504737Y5068D01*
X503791Y4122D01*
X502729Y3307D01*
X501571Y2638D01*
X500335Y2126D01*
X499043Y1780D01*
X497716Y1606D01*
X497047D01*
X312614D01*
Y151575D01*
X312553Y151882D01*
X312379Y152143D01*
X312118Y152316D01*
X311811Y152378D01*
X1606D01*
Y185039D01*
Y185708D01*
X1780Y187035D01*
X2127Y188327D01*
X2638Y189563D01*
X3307Y190721D01*
X4122Y191783D01*
X5068Y192729D01*
X6129Y193543D01*
X7288Y194212D01*
X8524Y194724D01*
X9816Y195070D01*
X11142Y195245D01*
X11811Y195245D01*
X104724Y195245D01*
X104751Y195250D01*
X104777Y195246D01*
X105549Y195271D01*
X105627Y195289D01*
X105706Y195284D01*
X107238Y195485D01*
X107339Y195519D01*
X107444Y195526D01*
X108937Y195926D01*
X109031Y195973D01*
X109135Y195994D01*
X110563Y196585D01*
X110651Y196644D01*
X110751Y196678D01*
X111407Y197057D01*
X122727Y197057D01*
X123044Y196671D01*
X122835Y195619D01*
Y194145D01*
X123122Y192700D01*
X123686Y191339D01*
X124505Y190113D01*
X125547Y189072D01*
X126772Y188253D01*
X128133Y187689D01*
X129578Y187402D01*
X131052D01*
X132497Y187689D01*
X133858Y188253D01*
X135083Y189072D01*
X136125Y190113D01*
X136944Y191339D01*
X137508Y192700D01*
X137795Y194145D01*
Y195619D01*
X137586Y196672D01*
X137903Y197059D01*
X149218Y197060D01*
X149879Y196678D01*
D02*
G37*
G36*
X129512Y41187D02*
X129012Y41108D01*
X128547Y42540D01*
X127590Y44417D01*
X126352Y46122D01*
X124862Y47612D01*
X123157Y48850D01*
X121280Y49807D01*
X119276Y50458D01*
X117195Y50787D01*
X115088D01*
X113007Y50458D01*
X111003Y49807D01*
X109126Y48850D01*
X107422Y47612D01*
X105932Y46122D01*
X104693Y44417D01*
X103737Y42540D01*
X103085Y40536D01*
X102756Y38455D01*
Y36348D01*
X103085Y34267D01*
X103737Y32263D01*
X104693Y30386D01*
X105932Y28681D01*
X107422Y27191D01*
X109126Y25953D01*
X111003Y24996D01*
X113007Y24345D01*
X115088Y24016D01*
X117195D01*
X119276Y24345D01*
X121280Y24996D01*
X123157Y25953D01*
X124862Y27191D01*
X126352Y28681D01*
X127590Y30386D01*
X128547Y32263D01*
X129012Y33695D01*
X129512Y33616D01*
Y1606D01*
X11811D01*
X11142Y1606D01*
X9816Y1780D01*
X8523Y2126D01*
X7288Y2638D01*
X6129Y3307D01*
X5068Y4122D01*
X4122Y5068D01*
X3543Y5821D01*
Y123213D01*
X129512D01*
Y41187D01*
D02*
G37*
G36*
X283449Y40510D02*
X282949Y40471D01*
X282939Y40537D01*
X282288Y42541D01*
X281331Y44418D01*
X280093Y46123D01*
X278603Y47613D01*
X276898Y48851D01*
X275021Y49808D01*
X273017Y50459D01*
X270936Y50788D01*
X268829D01*
X266748Y50459D01*
X264744Y49808D01*
X262867Y48851D01*
X261162Y47613D01*
X259672Y46123D01*
X258434Y44418D01*
X257477Y42541D01*
X256826Y40537D01*
X256497Y38456D01*
Y36349D01*
X256826Y34268D01*
X257477Y32264D01*
X258434Y30387D01*
X259672Y28682D01*
X261162Y27192D01*
X262867Y25954D01*
X264744Y24997D01*
X266748Y24346D01*
X268829Y24016D01*
X270936D01*
X273017Y24346D01*
X275021Y24997D01*
X276898Y25954D01*
X278603Y27192D01*
X280093Y28682D01*
X281331Y30387D01*
X282288Y32264D01*
X282939Y34268D01*
X282949Y34334D01*
X283449Y34295D01*
Y1606D01*
X157889Y1606D01*
Y34302D01*
X158389Y34341D01*
X158401Y34268D01*
X159052Y32264D01*
X160009Y30387D01*
X161247Y28682D01*
X162737Y27192D01*
X164442Y25954D01*
X166319Y24997D01*
X168323Y24346D01*
X170404Y24016D01*
X172511D01*
X174592Y24346D01*
X176596Y24997D01*
X178473Y25954D01*
X180177Y27192D01*
X181667Y28682D01*
X182906Y30387D01*
X183862Y32264D01*
X184513Y34268D01*
X184843Y36349D01*
Y38456D01*
X184513Y40537D01*
X183862Y42541D01*
X182906Y44418D01*
X181667Y46123D01*
X180177Y47613D01*
X178473Y48851D01*
X176596Y49808D01*
X174592Y50459D01*
X172511Y50788D01*
X170404D01*
X168323Y50459D01*
X166319Y49808D01*
X164442Y48851D01*
X162737Y47613D01*
X161247Y46123D01*
X160009Y44418D01*
X159052Y42541D01*
X158401Y40537D01*
X158389Y40464D01*
X157889Y40503D01*
Y123213D01*
X283449D01*
Y40510D01*
D02*
G37*
%LPC*%
G36*
X251378Y175823D02*
X250687Y175685D01*
X250106Y175297D01*
X250101Y175294D01*
X249538Y175247D01*
X249506Y175294D01*
X248920Y175685D01*
X248229Y175823D01*
X247538Y175685D01*
X246952Y175294D01*
X246560Y174708D01*
X246423Y174016D01*
Y169685D01*
Y159645D01*
X246560Y158954D01*
X246952Y158368D01*
X247146Y158174D01*
X246954Y157712D01*
X99173D01*
X96295Y160591D01*
Y167362D01*
X98915Y169983D01*
X99307Y170569D01*
X99444Y171260D01*
Y174016D01*
X99307Y174707D01*
X98915Y175293D01*
X98329Y175685D01*
X97638Y175822D01*
X96947Y175685D01*
X96365Y175296D01*
X96248Y175222D01*
X95813D01*
X95766Y175293D01*
X95179Y175685D01*
X94488Y175822D01*
X93797Y175685D01*
X93211Y175293D01*
X92819Y174707D01*
X92682Y174016D01*
Y168504D01*
Y159843D01*
X92819Y159151D01*
X93211Y158565D01*
X97148Y154628D01*
X97734Y154237D01*
X98425Y154099D01*
X312244D01*
X392424Y73920D01*
X393009Y73528D01*
X393701Y73391D01*
X433268D01*
X433959Y73528D01*
X434545Y73920D01*
X439525Y78900D01*
X439917Y79486D01*
X440054Y80177D01*
Y85084D01*
X440726Y85472D01*
X441477Y86223D01*
X442008Y87143D01*
X442283Y88169D01*
Y89232D01*
X442008Y90258D01*
X441477Y91179D01*
X440726Y91930D01*
X439806Y92461D01*
X438779Y92736D01*
X437717D01*
X436690Y92461D01*
X435770Y91930D01*
X435019Y91179D01*
X434488Y90258D01*
X434213Y89232D01*
Y88169D01*
X434488Y87143D01*
X435019Y86223D01*
X435770Y85472D01*
X436442Y85084D01*
Y80925D01*
X432519Y77003D01*
X394449D01*
X314269Y157183D01*
X313683Y157574D01*
X312992Y157712D01*
X252717D01*
X250035Y160393D01*
Y168857D01*
X252580Y171402D01*
X252972Y171988D01*
X253110Y172680D01*
Y173638D01*
X253185Y174016D01*
X253047Y174708D01*
X252656Y175294D01*
X252070Y175685D01*
X251378Y175823D01*
D02*
G37*
G36*
X217833Y170867D02*
X217207D01*
X216628Y170627D01*
X216185Y170184D01*
X215946Y169605D01*
Y168979D01*
X216185Y168400D01*
X216344Y168241D01*
X216595Y167914D01*
X216344Y167587D01*
X216185Y167428D01*
X215946Y166850D01*
Y166223D01*
X216185Y165644D01*
X216628Y165201D01*
X217207Y164961D01*
X217833D01*
X218412Y165201D01*
X218855Y165644D01*
X219095Y166223D01*
Y166850D01*
X218855Y167428D01*
X218696Y167587D01*
X218445Y167914D01*
X218696Y168241D01*
X218855Y168400D01*
X219095Y168979D01*
Y169605D01*
X218855Y170184D01*
X218412Y170627D01*
X217833Y170867D01*
D02*
G37*
G36*
X64093Y170866D02*
X63466D01*
X62888Y170626D01*
X62445Y170183D01*
X62205Y169605D01*
Y168978D01*
X62445Y168399D01*
X62604Y168240D01*
X62854Y167913D01*
X62604Y167587D01*
X62445Y167428D01*
X62205Y166849D01*
Y166222D01*
X62445Y165643D01*
X62888Y165200D01*
X63466Y164961D01*
X64093D01*
X64672Y165200D01*
X65115Y165643D01*
X65354Y166222D01*
Y166849D01*
X65115Y167428D01*
X64955Y167587D01*
X64705Y167913D01*
X64955Y168240D01*
X65115Y168399D01*
X65354Y168978D01*
Y169605D01*
X65115Y170183D01*
X64672Y170626D01*
X64093Y170866D01*
D02*
G37*
G36*
X458807Y102949D02*
X458748D01*
Y99201D01*
X462496D01*
Y99260D01*
X462207Y100340D01*
X461647Y101309D01*
X460856Y102100D01*
X459888Y102659D01*
X458807Y102949D01*
D02*
G37*
G36*
X457748D02*
X457689D01*
X456608Y102659D01*
X455640Y102100D01*
X454849Y101309D01*
X454289Y100340D01*
X454000Y99260D01*
Y99201D01*
X457748D01*
Y102949D01*
D02*
G37*
G36*
X438807D02*
X438748D01*
Y99201D01*
X442496D01*
Y99260D01*
X442207Y100340D01*
X441647Y101309D01*
X440856Y102100D01*
X439888Y102659D01*
X438807Y102949D01*
D02*
G37*
G36*
X437748D02*
X437689D01*
X436608Y102659D01*
X435640Y102100D01*
X434849Y101309D01*
X434290Y100340D01*
X434000Y99260D01*
Y99201D01*
X437748D01*
Y102949D01*
D02*
G37*
G36*
X478779Y102736D02*
X477717D01*
X476690Y102461D01*
X475770Y101930D01*
X475019Y101179D01*
X474488Y100258D01*
X474213Y99232D01*
Y98169D01*
X474488Y97143D01*
X475019Y96223D01*
X475770Y95472D01*
X476690Y94940D01*
X477717Y94665D01*
X478779D01*
X479806Y94940D01*
X480726Y95472D01*
X481477Y96223D01*
X482008Y97143D01*
X482283Y98169D01*
Y99232D01*
X482008Y100258D01*
X481477Y101179D01*
X480726Y101930D01*
X479806Y102461D01*
X478779Y102736D01*
D02*
G37*
G36*
X468779D02*
X467717D01*
X466690Y102461D01*
X465770Y101930D01*
X465019Y101179D01*
X464488Y100258D01*
X464213Y99232D01*
Y98169D01*
X464488Y97143D01*
X465019Y96223D01*
X465770Y95472D01*
X466690Y94940D01*
X467717Y94665D01*
X468779D01*
X469806Y94940D01*
X470726Y95472D01*
X471477Y96223D01*
X472008Y97143D01*
X472284Y98169D01*
Y99232D01*
X472008Y100258D01*
X471477Y101179D01*
X470726Y101930D01*
X469806Y102461D01*
X468779Y102736D01*
D02*
G37*
G36*
X448779D02*
X447717D01*
X446690Y102461D01*
X445770Y101930D01*
X445019Y101179D01*
X444488Y100258D01*
X444213Y99232D01*
Y98169D01*
X444488Y97143D01*
X445019Y96223D01*
X445770Y95472D01*
X446690Y94940D01*
X447717Y94665D01*
X448779D01*
X449806Y94940D01*
X450726Y95472D01*
X451477Y96223D01*
X452008Y97143D01*
X452283Y98169D01*
Y99232D01*
X452008Y100258D01*
X451477Y101179D01*
X450726Y101930D01*
X449806Y102461D01*
X448779Y102736D01*
D02*
G37*
G36*
X428779D02*
X427717D01*
X426690Y102461D01*
X425770Y101930D01*
X425019Y101179D01*
X424488Y100258D01*
X424213Y99232D01*
Y98169D01*
X424488Y97143D01*
X425019Y96223D01*
X425770Y95472D01*
X426690Y94940D01*
X427717Y94665D01*
X428779D01*
X429806Y94940D01*
X430726Y95472D01*
X431477Y96223D01*
X432008Y97143D01*
X432283Y98169D01*
Y99232D01*
X432008Y100258D01*
X431477Y101179D01*
X430726Y101930D01*
X429806Y102461D01*
X428779Y102736D01*
D02*
G37*
G36*
X422284D02*
X414213D01*
Y94665D01*
X422284D01*
Y102736D01*
D02*
G37*
G36*
X462496Y98201D02*
X458748D01*
Y94453D01*
X458807D01*
X459888Y94742D01*
X460856Y95302D01*
X461647Y96092D01*
X462207Y97061D01*
X462496Y98141D01*
Y98201D01*
D02*
G37*
G36*
X457748D02*
X454000D01*
Y98141D01*
X454289Y97061D01*
X454849Y96092D01*
X455640Y95302D01*
X456608Y94742D01*
X457689Y94453D01*
X457748D01*
Y98201D01*
D02*
G37*
G36*
X442496D02*
X438748D01*
Y94453D01*
X438807D01*
X439888Y94742D01*
X440856Y95302D01*
X441647Y96092D01*
X442207Y97061D01*
X442496Y98141D01*
Y98201D01*
D02*
G37*
G36*
X437748D02*
X434000D01*
Y98141D01*
X434290Y97061D01*
X434849Y96092D01*
X435640Y95302D01*
X436608Y94742D01*
X437689Y94453D01*
X437748D01*
Y98201D01*
D02*
G37*
G36*
X448807Y92949D02*
X448748D01*
Y89201D01*
X452496D01*
Y89260D01*
X452207Y90341D01*
X451647Y91309D01*
X450856Y92100D01*
X449888Y92659D01*
X448807Y92949D01*
D02*
G37*
G36*
X447748D02*
X447689D01*
X446608Y92659D01*
X445640Y92100D01*
X444849Y91309D01*
X444289Y90341D01*
X444000Y89260D01*
Y89201D01*
X447748D01*
Y92949D01*
D02*
G37*
G36*
X478779Y92736D02*
X477717D01*
X476690Y92461D01*
X475770Y91930D01*
X475019Y91179D01*
X474488Y90258D01*
X474213Y89232D01*
Y88169D01*
X474488Y87143D01*
X475019Y86223D01*
X475770Y85472D01*
X476690Y84940D01*
X477717Y84665D01*
X478779D01*
X479806Y84940D01*
X480726Y85472D01*
X481477Y86223D01*
X482008Y87143D01*
X482283Y88169D01*
Y89232D01*
X482008Y90258D01*
X481477Y91179D01*
X480726Y91930D01*
X479806Y92461D01*
X478779Y92736D01*
D02*
G37*
G36*
X468779D02*
X467717D01*
X466690Y92461D01*
X465770Y91930D01*
X465019Y91179D01*
X464488Y90258D01*
X464213Y89232D01*
Y88169D01*
X464488Y87143D01*
X465019Y86223D01*
X465770Y85472D01*
X466690Y84940D01*
X467717Y84665D01*
X468779D01*
X469806Y84940D01*
X470726Y85472D01*
X471477Y86223D01*
X472008Y87143D01*
X472284Y88169D01*
Y89232D01*
X472008Y90258D01*
X471477Y91179D01*
X470726Y91930D01*
X469806Y92461D01*
X468779Y92736D01*
D02*
G37*
G36*
X458779D02*
X457717D01*
X456690Y92461D01*
X455770Y91930D01*
X455019Y91179D01*
X454488Y90258D01*
X454213Y89232D01*
Y88169D01*
X454488Y87143D01*
X455019Y86223D01*
X455770Y85472D01*
X456690Y84940D01*
X457717Y84665D01*
X458779D01*
X459806Y84940D01*
X460726Y85472D01*
X461477Y86223D01*
X462008Y87143D01*
X462284Y88169D01*
Y89232D01*
X462008Y90258D01*
X461477Y91179D01*
X460726Y91930D01*
X459806Y92461D01*
X458779Y92736D01*
D02*
G37*
G36*
X428779D02*
X427717D01*
X426690Y92461D01*
X425770Y91930D01*
X425019Y91179D01*
X424488Y90258D01*
X424213Y89232D01*
Y88169D01*
X424488Y87143D01*
X425019Y86223D01*
X425770Y85472D01*
X426690Y84940D01*
X427717Y84665D01*
X428779D01*
X429806Y84940D01*
X430726Y85472D01*
X431477Y86223D01*
X432008Y87143D01*
X432283Y88169D01*
Y89232D01*
X432008Y90258D01*
X431477Y91179D01*
X430726Y91930D01*
X429806Y92461D01*
X428779Y92736D01*
D02*
G37*
G36*
X418779D02*
X417717D01*
X416690Y92461D01*
X415770Y91930D01*
X415019Y91179D01*
X414488Y90258D01*
X414213Y89232D01*
Y88169D01*
X414488Y87143D01*
X415019Y86223D01*
X415770Y85472D01*
X416690Y84940D01*
X417717Y84665D01*
X418779D01*
X419806Y84940D01*
X420726Y85472D01*
X421477Y86223D01*
X422008Y87143D01*
X422284Y88169D01*
Y89232D01*
X422008Y90258D01*
X421477Y91179D01*
X420726Y91930D01*
X419806Y92461D01*
X418779Y92736D01*
D02*
G37*
G36*
X452496Y88201D02*
X448748D01*
Y84453D01*
X448807D01*
X449888Y84742D01*
X450856Y85302D01*
X451647Y86092D01*
X452207Y87061D01*
X452496Y88142D01*
Y88201D01*
D02*
G37*
G36*
X447748D02*
X444000D01*
Y88142D01*
X444289Y87061D01*
X444849Y86092D01*
X445640Y85302D01*
X446608Y84742D01*
X447689Y84453D01*
X447748D01*
Y88201D01*
D02*
G37*
G36*
X425804Y58228D02*
X424353D01*
X422951Y57853D01*
X421694Y57127D01*
X420668Y56101D01*
X419943Y54844D01*
X419567Y53442D01*
Y51991D01*
X419943Y50589D01*
X420668Y49332D01*
X421694Y48306D01*
X422951Y47580D01*
X424353Y47205D01*
X425804D01*
X427206Y47580D01*
X428463Y48306D01*
X429489Y49332D01*
X430215Y50589D01*
X430590Y51991D01*
Y53442D01*
X430215Y54844D01*
X429489Y56101D01*
X428463Y57127D01*
X427206Y57853D01*
X425804Y58228D01*
D02*
G37*
G36*
X394308D02*
X392857D01*
X391455Y57853D01*
X390198Y57127D01*
X389172Y56101D01*
X388446Y54844D01*
X388071Y53442D01*
Y51991D01*
X388446Y50589D01*
X389172Y49332D01*
X390198Y48306D01*
X391455Y47580D01*
X392857Y47205D01*
X394308D01*
X395710Y47580D01*
X396967Y48306D01*
X397993Y49332D01*
X398719Y50589D01*
X399095Y51991D01*
Y53442D01*
X398719Y54844D01*
X397993Y56101D01*
X396967Y57127D01*
X395710Y57853D01*
X394308Y58228D01*
D02*
G37*
G36*
X362812D02*
X361361D01*
X359959Y57853D01*
X358702Y57127D01*
X357676Y56101D01*
X356950Y54844D01*
X356575Y53442D01*
Y51991D01*
X356950Y50589D01*
X357676Y49332D01*
X358702Y48306D01*
X359959Y47580D01*
X361361Y47205D01*
X362812D01*
X364214Y47580D01*
X365471Y48306D01*
X366497Y49332D01*
X367223Y50589D01*
X367598Y51991D01*
Y53442D01*
X367223Y54844D01*
X366497Y56101D01*
X365471Y57127D01*
X364214Y57853D01*
X362812Y58228D01*
D02*
G37*
G36*
X331316D02*
X329865D01*
X328463Y57853D01*
X327206Y57127D01*
X326180Y56101D01*
X325454Y54844D01*
X325079Y53442D01*
Y51991D01*
X325454Y50589D01*
X326180Y49332D01*
X327206Y48306D01*
X328463Y47580D01*
X329865Y47205D01*
X331316D01*
X332718Y47580D01*
X333975Y48306D01*
X335001Y49332D01*
X335727Y50589D01*
X336102Y51991D01*
Y53442D01*
X335727Y54844D01*
X335001Y56101D01*
X333975Y57127D01*
X332718Y57853D01*
X331316Y58228D01*
D02*
G37*
G36*
X425804Y24764D02*
X424353D01*
X422951Y24388D01*
X421694Y23663D01*
X420668Y22636D01*
X419943Y21379D01*
X419567Y19978D01*
Y18526D01*
X419943Y17124D01*
X420668Y15868D01*
X421694Y14841D01*
X422951Y14116D01*
X424353Y13740D01*
X425804D01*
X427206Y14116D01*
X428463Y14841D01*
X429489Y15868D01*
X430215Y17124D01*
X430590Y18526D01*
Y19978D01*
X430215Y21379D01*
X429489Y22636D01*
X428463Y23663D01*
X427206Y24388D01*
X425804Y24764D01*
D02*
G37*
G36*
X394308D02*
X392857D01*
X391455Y24388D01*
X390198Y23663D01*
X389172Y22636D01*
X388446Y21379D01*
X388071Y19978D01*
Y18526D01*
X388446Y17124D01*
X389172Y15868D01*
X390198Y14841D01*
X391455Y14116D01*
X392857Y13740D01*
X394308D01*
X395710Y14116D01*
X396967Y14841D01*
X397993Y15868D01*
X398719Y17124D01*
X399095Y18526D01*
Y19978D01*
X398719Y21379D01*
X397993Y22636D01*
X396967Y23663D01*
X395710Y24388D01*
X394308Y24764D01*
D02*
G37*
G36*
X362812D02*
X361361D01*
X359959Y24388D01*
X358702Y23663D01*
X357676Y22636D01*
X356950Y21379D01*
X356575Y19978D01*
Y18526D01*
X356950Y17124D01*
X357676Y15868D01*
X358702Y14841D01*
X359959Y14116D01*
X361361Y13740D01*
X362812D01*
X364214Y14116D01*
X365471Y14841D01*
X366497Y15868D01*
X367223Y17124D01*
X367598Y18526D01*
Y19978D01*
X367223Y21379D01*
X366497Y22636D01*
X365471Y23663D01*
X364214Y24388D01*
X362812Y24764D01*
D02*
G37*
G36*
X331316D02*
X329865D01*
X328463Y24388D01*
X327206Y23663D01*
X326180Y22636D01*
X325454Y21379D01*
X325079Y19978D01*
Y18526D01*
X325454Y17124D01*
X326180Y15868D01*
X327206Y14841D01*
X328463Y14116D01*
X329865Y13740D01*
X331316D01*
X332718Y14116D01*
X333975Y14841D01*
X335001Y15868D01*
X335727Y17124D01*
X336102Y18526D01*
Y19978D01*
X335727Y21379D01*
X335001Y22636D01*
X333975Y23663D01*
X332718Y24388D01*
X331316Y24764D01*
D02*
G37*
G36*
X113305Y117323D02*
X112679D01*
X112100Y117083D01*
X111657Y116640D01*
X111417Y116061D01*
Y115435D01*
X111657Y114856D01*
X112100Y114413D01*
X112679Y114173D01*
X113305D01*
X113884Y114413D01*
X114327Y114856D01*
X114567Y115435D01*
Y116061D01*
X114327Y116640D01*
X113884Y117083D01*
X113305Y117323D01*
D02*
G37*
G36*
X43307Y113023D02*
X43152Y112992D01*
X42994D01*
X42848Y112932D01*
X42693Y112901D01*
X42561Y112813D01*
X42415Y112752D01*
X42303Y112641D01*
X42172Y112553D01*
X42084Y112421D01*
X41972Y112309D01*
X41912Y112163D01*
X41824Y112032D01*
X41793Y111877D01*
X41732Y111731D01*
Y111572D01*
X41701Y111417D01*
Y96851D01*
X41701Y96850D01*
X41824Y96236D01*
X42172Y95715D01*
X50507Y87380D01*
X50224Y86956D01*
X49861Y87106D01*
X49352D01*
X48882Y86911D01*
X48522Y86552D01*
X48327Y86081D01*
Y85572D01*
X48522Y85102D01*
X48882Y84742D01*
X49352Y84547D01*
X49861D01*
X50331Y84742D01*
X50691Y85102D01*
X50886Y85572D01*
Y86081D01*
X50736Y86444D01*
X51159Y86727D01*
X54770Y83117D01*
X54902Y83029D01*
X55014Y82917D01*
X55160Y82856D01*
X55291Y82769D01*
X55446Y82738D01*
X55592Y82677D01*
X55750D01*
X55905Y82646D01*
X56061Y82677D01*
X56219D01*
X56365Y82738D01*
X56520Y82769D01*
X56652Y82856D01*
X56798Y82917D01*
X56909Y83029D01*
X57041Y83117D01*
X57129Y83248D01*
X57241Y83360D01*
X57301Y83506D01*
X57389Y83637D01*
X57420Y83793D01*
X57480Y83939D01*
Y84097D01*
X57511Y84252D01*
X57480Y84407D01*
Y84565D01*
X57420Y84711D01*
X57389Y84866D01*
X57301Y84998D01*
X57241Y85144D01*
X57129Y85256D01*
X57041Y85387D01*
X44913Y97515D01*
Y111417D01*
X44882Y111572D01*
Y111731D01*
X44821Y111877D01*
X44791Y112032D01*
X44703Y112163D01*
X44642Y112309D01*
X44530Y112421D01*
X44442Y112553D01*
X44311Y112641D01*
X44199Y112752D01*
X44053Y112813D01*
X43922Y112901D01*
X43766Y112932D01*
X43620Y112992D01*
X43462D01*
X43307Y113023D01*
D02*
G37*
G36*
X63247Y88681D02*
X62738D01*
X62267Y88486D01*
X61907Y88126D01*
X61713Y87656D01*
Y87147D01*
X61907Y86677D01*
X62267Y86317D01*
X62738Y86122D01*
X63247D01*
X63717Y86317D01*
X64077Y86677D01*
X64272Y87147D01*
Y87656D01*
X64077Y88126D01*
X63717Y88486D01*
X63247Y88681D01*
D02*
G37*
G36*
X60097D02*
X59588D01*
X59118Y88486D01*
X58758Y88126D01*
X58563Y87656D01*
Y87147D01*
X58758Y86677D01*
X59118Y86317D01*
X59588Y86122D01*
X60097D01*
X60567Y86317D01*
X60927Y86677D01*
X61122Y87147D01*
Y87656D01*
X60927Y88126D01*
X60567Y88486D01*
X60097Y88681D01*
D02*
G37*
G36*
X25058Y77658D02*
X24549D01*
X24078Y77463D01*
X23718Y77103D01*
X23524Y76632D01*
Y76123D01*
X23718Y75653D01*
X24078Y75293D01*
X24549Y75099D01*
X25058D01*
X25528Y75293D01*
X25888Y75653D01*
X26083Y76123D01*
Y76632D01*
X25888Y77103D01*
X25528Y77463D01*
X25058Y77658D01*
D02*
G37*
G36*
X78366Y47028D02*
X77303D01*
X76277Y46753D01*
X75357Y46221D01*
X74606Y45470D01*
X74074Y44550D01*
X73799Y43523D01*
Y42461D01*
X74074Y41434D01*
X74606Y40514D01*
X75357Y39763D01*
X76277Y39232D01*
X77303Y38957D01*
X78366D01*
X79392Y39232D01*
X80313Y39763D01*
X81064Y40514D01*
X81595Y41434D01*
X81870Y42461D01*
Y43523D01*
X81595Y44550D01*
X81064Y45470D01*
X80313Y46221D01*
X79392Y46753D01*
X78366Y47028D01*
D02*
G37*
G36*
X67460D02*
X66398D01*
X65372Y46753D01*
X64451Y46221D01*
X63700Y45470D01*
X63169Y44550D01*
X62894Y43523D01*
Y42461D01*
X63169Y41434D01*
X63700Y40514D01*
X64451Y39763D01*
X65372Y39232D01*
X66398Y38957D01*
X67460D01*
X68487Y39232D01*
X69407Y39763D01*
X70158Y40514D01*
X70689Y41434D01*
X70965Y42461D01*
Y43523D01*
X70689Y44550D01*
X70158Y45470D01*
X69407Y46221D01*
X68487Y46753D01*
X67460Y47028D01*
D02*
G37*
G36*
X56555D02*
X55492D01*
X54466Y46753D01*
X53546Y46221D01*
X52794Y45470D01*
X52263Y44550D01*
X51988Y43523D01*
Y42461D01*
X52263Y41434D01*
X52794Y40514D01*
X53546Y39763D01*
X54466Y39232D01*
X55492Y38957D01*
X56555D01*
X57581Y39232D01*
X58501Y39763D01*
X59253Y40514D01*
X59784Y41434D01*
X60059Y42461D01*
Y43523D01*
X59784Y44550D01*
X59253Y45470D01*
X58501Y46221D01*
X57581Y46753D01*
X56555Y47028D01*
D02*
G37*
G36*
X45649D02*
X44587D01*
X43560Y46753D01*
X42640Y46221D01*
X41889Y45470D01*
X41358Y44550D01*
X41083Y43523D01*
Y42461D01*
X41358Y41434D01*
X41889Y40514D01*
X42640Y39763D01*
X43560Y39232D01*
X44587Y38957D01*
X45649D01*
X46676Y39232D01*
X47596Y39763D01*
X48347Y40514D01*
X48878Y41434D01*
X49154Y42461D01*
Y43523D01*
X48878Y44550D01*
X48347Y45470D01*
X47596Y46221D01*
X46676Y46753D01*
X45649Y47028D01*
D02*
G37*
G36*
X90364Y47075D02*
X87116D01*
X86175Y46888D01*
X85378Y46355D01*
X84845Y45557D01*
X84658Y44616D01*
Y41368D01*
X84845Y40427D01*
X85378Y39630D01*
X86175Y39097D01*
X87116Y38910D01*
X90364D01*
X91305Y39097D01*
X92103Y39630D01*
X92636Y40427D01*
X92823Y41368D01*
Y44616D01*
X92636Y45557D01*
X92103Y46355D01*
X91305Y46888D01*
X90364Y47075D01*
D02*
G37*
G36*
X83819Y35846D02*
X82756D01*
X81730Y35571D01*
X80810Y35040D01*
X80058Y34289D01*
X79527Y33369D01*
X79252Y32342D01*
Y31280D01*
X79527Y30253D01*
X80058Y29333D01*
X80810Y28582D01*
X81730Y28051D01*
X82756Y27776D01*
X83819D01*
X84845Y28051D01*
X85765Y28582D01*
X86516Y29333D01*
X87048Y30253D01*
X87323Y31280D01*
Y32342D01*
X87048Y33369D01*
X86516Y34289D01*
X85765Y35040D01*
X84845Y35571D01*
X83819Y35846D01*
D02*
G37*
G36*
X72913D02*
X71851D01*
X70824Y35571D01*
X69904Y35040D01*
X69153Y34289D01*
X68621Y33369D01*
X68347Y32342D01*
Y31280D01*
X68621Y30253D01*
X69153Y29333D01*
X69904Y28582D01*
X70824Y28051D01*
X71851Y27776D01*
X72913D01*
X73940Y28051D01*
X74860Y28582D01*
X75611Y29333D01*
X76142Y30253D01*
X76417Y31280D01*
Y32342D01*
X76142Y33369D01*
X75611Y34289D01*
X74860Y35040D01*
X73940Y35571D01*
X72913Y35846D01*
D02*
G37*
G36*
X62008D02*
X60945D01*
X59919Y35571D01*
X58999Y35040D01*
X58247Y34289D01*
X57716Y33369D01*
X57441Y32342D01*
Y31280D01*
X57716Y30253D01*
X58247Y29333D01*
X58999Y28582D01*
X59919Y28051D01*
X60945Y27776D01*
X62008D01*
X63034Y28051D01*
X63954Y28582D01*
X64705Y29333D01*
X65237Y30253D01*
X65512Y31280D01*
Y32342D01*
X65237Y33369D01*
X64705Y34289D01*
X63954Y35040D01*
X63034Y35571D01*
X62008Y35846D01*
D02*
G37*
G36*
X51102D02*
X50040D01*
X49013Y35571D01*
X48093Y35040D01*
X47342Y34289D01*
X46810Y33369D01*
X46535Y32342D01*
Y31280D01*
X46810Y30253D01*
X47342Y29333D01*
X48093Y28582D01*
X49013Y28051D01*
X50040Y27776D01*
X51102D01*
X52128Y28051D01*
X53049Y28582D01*
X53800Y29333D01*
X54331Y30253D01*
X54606Y31280D01*
Y32342D01*
X54331Y33369D01*
X53800Y34289D01*
X53049Y35040D01*
X52128Y35571D01*
X51102Y35846D01*
D02*
G37*
G36*
X18770Y50787D02*
X16663D01*
X14582Y50458D01*
X12578Y49807D01*
X10701Y48850D01*
X8996Y47612D01*
X7506Y46122D01*
X6268Y44417D01*
X5311Y42540D01*
X4660Y40536D01*
X4331Y38455D01*
Y36348D01*
X4660Y34267D01*
X5311Y32263D01*
X6268Y30386D01*
X7506Y28681D01*
X8996Y27191D01*
X10701Y25953D01*
X12578Y24996D01*
X14582Y24345D01*
X16663Y24016D01*
X18770D01*
X20851Y24345D01*
X22855Y24996D01*
X24732Y25953D01*
X26437Y27191D01*
X27927Y28681D01*
X29165Y30386D01*
X30122Y32263D01*
X30773Y34267D01*
X31102Y36348D01*
Y38455D01*
X30773Y40536D01*
X30122Y42540D01*
X29165Y44417D01*
X27927Y46122D01*
X26437Y47612D01*
X24732Y48850D01*
X22855Y49807D01*
X20851Y50458D01*
X18770Y50787D01*
D02*
G37*
G36*
X267046Y117324D02*
X266420D01*
X265841Y117084D01*
X265398Y116641D01*
X265158Y116062D01*
Y115436D01*
X265398Y114857D01*
X265841Y114414D01*
X266420Y114174D01*
X267046D01*
X267625Y114414D01*
X268068Y114857D01*
X268308Y115436D01*
Y116062D01*
X268068Y116641D01*
X267625Y117084D01*
X267046Y117324D01*
D02*
G37*
G36*
X197048Y113024D02*
X196893Y112993D01*
X196735D01*
X196589Y112932D01*
X196433Y112901D01*
X196302Y112814D01*
X196156Y112753D01*
X196044Y112641D01*
X195913Y112554D01*
X195825Y112422D01*
X195713Y112310D01*
X195652Y112164D01*
X195564Y112033D01*
X195534Y111878D01*
X195473Y111731D01*
Y111573D01*
X195442Y111418D01*
Y96851D01*
X195442Y96851D01*
X195564Y96237D01*
X195913Y95716D01*
X204248Y87381D01*
X203964Y86957D01*
X203602Y87107D01*
X203093D01*
X202622Y86912D01*
X202262Y86552D01*
X202067Y86082D01*
Y85573D01*
X202262Y85103D01*
X202622Y84743D01*
X203093Y84548D01*
X203602D01*
X204072Y84743D01*
X204432Y85103D01*
X204627Y85573D01*
Y86082D01*
X204476Y86445D01*
X204900Y86728D01*
X208511Y83117D01*
X208642Y83030D01*
X208754Y82918D01*
X208900Y82857D01*
X209032Y82769D01*
X209187Y82739D01*
X209333Y82678D01*
X209491D01*
X209646Y82647D01*
X209801Y82678D01*
X209960D01*
X210106Y82739D01*
X210261Y82769D01*
X210392Y82857D01*
X210538Y82918D01*
X210650Y83030D01*
X210782Y83117D01*
X210870Y83249D01*
X210981Y83361D01*
X211042Y83507D01*
X211130Y83638D01*
X211161Y83793D01*
X211221Y83939D01*
Y84098D01*
X211252Y84253D01*
X211221Y84408D01*
Y84566D01*
X211160Y84712D01*
X211130Y84867D01*
X211042Y84999D01*
X210981Y85145D01*
X210870Y85257D01*
X210782Y85388D01*
X198653Y97516D01*
Y111418D01*
X198623Y111573D01*
Y111731D01*
X198562Y111878D01*
X198531Y112033D01*
X198443Y112164D01*
X198383Y112310D01*
X198271Y112422D01*
X198183Y112554D01*
X198052Y112641D01*
X197940Y112753D01*
X197794Y112814D01*
X197662Y112901D01*
X197507Y112932D01*
X197361Y112993D01*
X197203D01*
X197048Y113024D01*
D02*
G37*
G36*
X216987Y88682D02*
X216478D01*
X216008Y88487D01*
X215648Y88127D01*
X215453Y87657D01*
Y87148D01*
X215648Y86678D01*
X216008Y86318D01*
X216478Y86123D01*
X216987D01*
X217458Y86318D01*
X217818Y86678D01*
X218012Y87148D01*
Y87657D01*
X217818Y88127D01*
X217458Y88487D01*
X216987Y88682D01*
D02*
G37*
G36*
X213838D02*
X213329D01*
X212859Y88487D01*
X212498Y88127D01*
X212304Y87657D01*
Y87148D01*
X212498Y86678D01*
X212859Y86318D01*
X213329Y86123D01*
X213838D01*
X214308Y86318D01*
X214668Y86678D01*
X214863Y87148D01*
Y87657D01*
X214668Y88127D01*
X214308Y88487D01*
X213838Y88682D01*
D02*
G37*
G36*
X178798Y77658D02*
X178289D01*
X177819Y77464D01*
X177459Y77104D01*
X177264Y76633D01*
Y76124D01*
X177459Y75654D01*
X177819Y75294D01*
X178289Y75099D01*
X178798D01*
X179269Y75294D01*
X179629Y75654D01*
X179823Y76124D01*
Y76633D01*
X179629Y77104D01*
X179269Y77464D01*
X178798Y77658D01*
D02*
G37*
G36*
X232107Y47028D02*
X231044D01*
X230018Y46753D01*
X229098Y46222D01*
X228346Y45471D01*
X227815Y44550D01*
X227540Y43524D01*
Y42462D01*
X227815Y41435D01*
X228346Y40515D01*
X229098Y39764D01*
X230018Y39233D01*
X231044Y38958D01*
X232107D01*
X233133Y39233D01*
X234053Y39764D01*
X234805Y40515D01*
X235336Y41435D01*
X235611Y42462D01*
Y43524D01*
X235336Y44550D01*
X234805Y45471D01*
X234053Y46222D01*
X233133Y46753D01*
X232107Y47028D01*
D02*
G37*
G36*
X221201D02*
X220139D01*
X219112Y46753D01*
X218192Y46222D01*
X217441Y45471D01*
X216909Y44550D01*
X216634Y43524D01*
Y42462D01*
X216909Y41435D01*
X217441Y40515D01*
X218192Y39764D01*
X219112Y39233D01*
X220139Y38958D01*
X221201D01*
X222228Y39233D01*
X223148Y39764D01*
X223899Y40515D01*
X224430Y41435D01*
X224705Y42462D01*
Y43524D01*
X224430Y44550D01*
X223899Y45471D01*
X223148Y46222D01*
X222228Y46753D01*
X221201Y47028D01*
D02*
G37*
G36*
X210296D02*
X209233D01*
X208207Y46753D01*
X207287Y46222D01*
X206535Y45471D01*
X206004Y44550D01*
X205729Y43524D01*
Y42462D01*
X206004Y41435D01*
X206535Y40515D01*
X207287Y39764D01*
X208207Y39233D01*
X209233Y38958D01*
X210296D01*
X211322Y39233D01*
X212242Y39764D01*
X212994Y40515D01*
X213525Y41435D01*
X213800Y42462D01*
Y43524D01*
X213525Y44550D01*
X212994Y45471D01*
X212242Y46222D01*
X211322Y46753D01*
X210296Y47028D01*
D02*
G37*
G36*
X199390D02*
X198328D01*
X197301Y46753D01*
X196381Y46222D01*
X195630Y45471D01*
X195098Y44550D01*
X194823Y43524D01*
Y42462D01*
X195098Y41435D01*
X195630Y40515D01*
X196381Y39764D01*
X197301Y39233D01*
X198328Y38958D01*
X199390D01*
X200416Y39233D01*
X201337Y39764D01*
X202088Y40515D01*
X202619Y41435D01*
X202894Y42462D01*
Y43524D01*
X202619Y44550D01*
X202088Y45471D01*
X201337Y46222D01*
X200416Y46753D01*
X199390Y47028D01*
D02*
G37*
G36*
X244105Y47076D02*
X240857D01*
X239916Y46888D01*
X239118Y46356D01*
X238585Y45558D01*
X238398Y44617D01*
Y41369D01*
X238585Y40428D01*
X239118Y39630D01*
X239916Y39097D01*
X240857Y38910D01*
X244105D01*
X245046Y39097D01*
X245843Y39630D01*
X246376Y40428D01*
X246564Y41369D01*
Y44617D01*
X246376Y45558D01*
X245843Y46356D01*
X245046Y46888D01*
X244105Y47076D01*
D02*
G37*
G36*
X237559Y35847D02*
X236497D01*
X235471Y35572D01*
X234550Y35041D01*
X233799Y34290D01*
X233268Y33369D01*
X232993Y32343D01*
Y31280D01*
X233268Y30254D01*
X233799Y29334D01*
X234550Y28583D01*
X235471Y28051D01*
X236497Y27776D01*
X237559D01*
X238586Y28051D01*
X239506Y28583D01*
X240257Y29334D01*
X240789Y30254D01*
X241064Y31280D01*
Y32343D01*
X240789Y33369D01*
X240257Y34290D01*
X239506Y35041D01*
X238586Y35572D01*
X237559Y35847D01*
D02*
G37*
G36*
X226654D02*
X225591D01*
X224565Y35572D01*
X223645Y35041D01*
X222894Y34290D01*
X222362Y33369D01*
X222087Y32343D01*
Y31280D01*
X222362Y30254D01*
X222894Y29334D01*
X223645Y28583D01*
X224565Y28051D01*
X225591Y27776D01*
X226654D01*
X227680Y28051D01*
X228600Y28583D01*
X229352Y29334D01*
X229883Y30254D01*
X230158Y31280D01*
Y32343D01*
X229883Y33369D01*
X229352Y34290D01*
X228600Y35041D01*
X227680Y35572D01*
X226654Y35847D01*
D02*
G37*
G36*
X215748D02*
X214686D01*
X213660Y35572D01*
X212739Y35041D01*
X211988Y34290D01*
X211457Y33369D01*
X211182Y32343D01*
Y31280D01*
X211457Y30254D01*
X211988Y29334D01*
X212739Y28583D01*
X213660Y28051D01*
X214686Y27776D01*
X215748D01*
X216775Y28051D01*
X217695Y28583D01*
X218446Y29334D01*
X218977Y30254D01*
X219252Y31280D01*
Y32343D01*
X218977Y33369D01*
X218446Y34290D01*
X217695Y35041D01*
X216775Y35572D01*
X215748Y35847D01*
D02*
G37*
G36*
X204843D02*
X203780D01*
X202754Y35572D01*
X201834Y35041D01*
X201082Y34290D01*
X200551Y33369D01*
X200276Y32343D01*
Y31280D01*
X200551Y30254D01*
X201082Y29334D01*
X201834Y28583D01*
X202754Y28051D01*
X203780Y27776D01*
X204843D01*
X205869Y28051D01*
X206789Y28583D01*
X207541Y29334D01*
X208072Y30254D01*
X208347Y31280D01*
Y32343D01*
X208072Y33369D01*
X207541Y34290D01*
X206789Y35041D01*
X205869Y35572D01*
X204843Y35847D01*
D02*
G37*
%LPD*%
D11*
X94488Y168504D02*
Y174016D01*
Y159843D02*
Y168504D01*
X94882D01*
X97638Y171260D01*
Y174016D01*
X97638Y174016D02*
X97638Y174016D01*
X248229Y169685D02*
Y174016D01*
Y159645D02*
Y169685D01*
X248309D01*
X251303Y172680D02*
Y173941D01*
X248309Y169685D02*
X251303Y172680D01*
Y173941D02*
X251378Y174016D01*
X251969Y155905D02*
X312992D01*
X98425D02*
X251969D01*
X248229Y159645D02*
X251969Y155905D01*
X433268Y75197D02*
X438248Y80177D01*
Y88701D01*
X393701Y75197D02*
X433268D01*
X312992Y155905D02*
X393701Y75197D01*
X94488Y159843D02*
X98425Y155905D01*
D13*
X197048Y96851D02*
X209646Y84253D01*
X43307Y96850D02*
Y111417D01*
X197048Y96851D02*
Y111418D01*
X43307Y96850D02*
X55905Y84252D01*
D35*
X418248Y98701D02*
D03*
D36*
Y88701D02*
D03*
X428248Y98701D02*
D03*
Y88701D02*
D03*
X438248Y98701D02*
D03*
Y88701D02*
D03*
X448248Y98701D02*
D03*
Y88701D02*
D03*
X458248Y98701D02*
D03*
Y88701D02*
D03*
X468248Y98701D02*
D03*
Y88701D02*
D03*
X478248Y98701D02*
D03*
Y88701D02*
D03*
X220670Y42993D02*
D03*
X209764D02*
D03*
X198859D02*
D03*
X231575D02*
D03*
X237028Y31812D02*
D03*
X226123D02*
D03*
X215217D02*
D03*
X204312D02*
D03*
X66929Y42992D02*
D03*
X56024D02*
D03*
X45118D02*
D03*
X77835D02*
D03*
X83287Y31811D02*
D03*
X72382D02*
D03*
X61476D02*
D03*
X50571D02*
D03*
D37*
X130315Y194882D02*
D03*
D38*
X242481Y42993D02*
D03*
X88740Y42992D02*
D03*
D39*
X171457Y37402D02*
D03*
X269882D02*
D03*
X17717Y37402D02*
D03*
X116142D02*
D03*
D40*
X425079Y19252D02*
D03*
Y52716D02*
D03*
X393583Y19252D02*
D03*
Y52716D02*
D03*
X362087Y19252D02*
D03*
Y52716D02*
D03*
X330591Y19252D02*
D03*
Y52716D02*
D03*
D41*
X211615Y114961D02*
D03*
X178544Y84646D02*
D03*
Y76379D02*
D03*
X230119Y59056D02*
D03*
X231694Y113387D02*
D03*
X237599Y98032D02*
D03*
X257678Y107087D02*
D03*
X262009D02*
D03*
X218308Y96851D02*
D03*
X223426Y92127D02*
D03*
X197048Y85828D02*
D03*
X203347D02*
D03*
X206890Y115355D02*
D03*
X201772D02*
D03*
X216733Y87402D02*
D03*
X213583D02*
D03*
X59842Y87402D02*
D03*
X62992D02*
D03*
X48031Y115354D02*
D03*
X53150D02*
D03*
X49606Y85827D02*
D03*
X43307D02*
D03*
X69685Y92126D02*
D03*
X64567Y96850D02*
D03*
X108268Y107087D02*
D03*
X103937D02*
D03*
X83858Y98032D02*
D03*
X77953Y113386D02*
D03*
X76378Y59055D02*
D03*
X24803Y76378D02*
D03*
Y84646D02*
D03*
X57874Y114961D02*
D03*
D42*
X266733Y115749D02*
D03*
X209646Y84253D02*
D03*
X197048Y111418D02*
D03*
X259253Y165355D02*
D03*
Y170080D02*
D03*
X217520Y166536D02*
D03*
Y169292D02*
D03*
Y173623D02*
D03*
X210040Y176379D02*
D03*
X234843Y164174D02*
D03*
X251378Y174016D02*
D03*
X248229D02*
D03*
X97638Y174016D02*
D03*
X94488D02*
D03*
X81102Y164173D02*
D03*
X105512Y165354D02*
D03*
Y170079D02*
D03*
X63779Y166535D02*
D03*
Y169291D02*
D03*
Y173622D02*
D03*
X56299Y176378D02*
D03*
X43307Y111417D02*
D03*
X55905Y84252D02*
D03*
X112992Y115748D02*
D03*
M02*
